<mxfile host="app.diagrams.net" agent="Mozilla/5.0 (Windows NT 10.0; Win64; x64) AppleWebKit/537.36 (KHTML, like Gecko) Chrome/141.0.0.0 Safari/537.36" version="28.2.8">
  <diagram name="第 1 页" id="36anrVV9waf72uY3AOod">
    <mxGraphModel dx="1871" dy="1868" grid="1" gridSize="10" guides="1" tooltips="1" connect="1" arrows="1" fold="1" page="1" pageScale="1" pageWidth="827" pageHeight="1169" math="0" shadow="0">
      <root>
        <mxCell id="0" />
        <mxCell id="1" parent="0" />
        <mxCell id="KC17zQEP-fs8KMPw8967-210" value="ATMCaseStudy" style="swimlane;fontStyle=1;align=center;verticalAlign=top;childLayout=stackLayout;horizontal=1;startSize=47.2;horizontalStack=0;resizeParent=1;resizeParentMax=0;resizeLast=0;collapsible=0;marginBottom=0;fontSize=11;" parent="1" vertex="1">
          <mxGeometry x="1440" y="420" width="271" height="102.2" as="geometry" />
        </mxCell>
        <mxCell id="KC17zQEP-fs8KMPw8967-211" style="line;strokeWidth=1;fillColor=none;align=left;verticalAlign=middle;spacingTop=-1;spacingLeft=3;spacingRight=3;rotatable=0;labelPosition=right;points=[];portConstraint=eastwest;strokeColor=inherit;fontSize=11;" parent="KC17zQEP-fs8KMPw8967-210" vertex="1">
          <mxGeometry y="47.2" width="271" height="8" as="geometry" />
        </mxCell>
        <mxCell id="KC17zQEP-fs8KMPw8967-212" value="+main(args: String[]) : void" style="text;strokeColor=none;fillColor=none;align=left;verticalAlign=top;spacingLeft=4;spacingRight=4;overflow=hidden;rotatable=0;points=[[0,0.5],[1,0.5]];portConstraint=eastwest;fontSize=11;" parent="KC17zQEP-fs8KMPw8967-210" vertex="1">
          <mxGeometry y="55.2" width="271" height="47" as="geometry" />
        </mxCell>
        <mxCell id="KC17zQEP-fs8KMPw8967-430" style="edgeStyle=orthogonalEdgeStyle;rounded=0;orthogonalLoop=1;jettySize=auto;html=1;entryX=0.5;entryY=0;entryDx=0;entryDy=0;startArrow=diamondThin;startFill=1;endArrow=none;endFill=0;startSize=16;fontSize=11;" parent="1" source="KC17zQEP-fs8KMPw8967-213" target="KC17zQEP-fs8KMPw8967-313" edge="1">
          <mxGeometry relative="1" as="geometry">
            <Array as="points">
              <mxPoint x="2050" y="760" />
            </Array>
          </mxGeometry>
        </mxCell>
        <mxCell id="KC17zQEP-fs8KMPw8967-213" value="ATM" style="swimlane;fontStyle=1;align=center;verticalAlign=top;childLayout=stackLayout;horizontal=1;startSize=27.764705882352942;horizontalStack=0;resizeParent=1;resizeParentMax=0;resizeLast=0;collapsible=0;marginBottom=0;fontSize=11;" parent="1" vertex="1">
          <mxGeometry x="1880" y="180" width="344" height="398.00470588235294" as="geometry" />
        </mxCell>
        <mxCell id="KC17zQEP-fs8KMPw8967-214" value="-userAuthenticated: boolean" style="text;strokeColor=none;fillColor=none;align=left;verticalAlign=top;spacingLeft=4;spacingRight=4;overflow=hidden;rotatable=0;points=[[0,0.5],[1,0.5]];portConstraint=eastwest;fontSize=11;" parent="KC17zQEP-fs8KMPw8967-213" vertex="1">
          <mxGeometry y="27.764705882352942" width="344" height="22.24" as="geometry" />
        </mxCell>
        <mxCell id="KC17zQEP-fs8KMPw8967-215" value="-currentAccountNumber: int" style="text;strokeColor=none;fillColor=none;align=left;verticalAlign=top;spacingLeft=4;spacingRight=4;overflow=hidden;rotatable=0;points=[[0,0.5],[1,0.5]];portConstraint=eastwest;fontSize=11;" parent="KC17zQEP-fs8KMPw8967-213" vertex="1">
          <mxGeometry y="50.00470588235294" width="344" height="20" as="geometry" />
        </mxCell>
        <mxCell id="KC17zQEP-fs8KMPw8967-216" value="-screen: Screen" style="text;strokeColor=none;fillColor=none;align=left;verticalAlign=top;spacingLeft=4;spacingRight=4;overflow=hidden;rotatable=0;points=[[0,0.5],[1,0.5]];portConstraint=eastwest;fontSize=11;" parent="KC17zQEP-fs8KMPw8967-213" vertex="1">
          <mxGeometry y="70.00470588235294" width="344" height="20" as="geometry" />
        </mxCell>
        <mxCell id="KC17zQEP-fs8KMPw8967-217" value="-keypad: Keypad" style="text;strokeColor=none;fillColor=none;align=left;verticalAlign=top;spacingLeft=4;spacingRight=4;overflow=hidden;rotatable=0;points=[[0,0.5],[1,0.5]];portConstraint=eastwest;fontSize=11;" parent="KC17zQEP-fs8KMPw8967-213" vertex="1">
          <mxGeometry y="90.00470588235294" width="344" height="20" as="geometry" />
        </mxCell>
        <mxCell id="KC17zQEP-fs8KMPw8967-218" value="-cashDispenser: CashDispenser" style="text;strokeColor=none;fillColor=none;align=left;verticalAlign=top;spacingLeft=4;spacingRight=4;overflow=hidden;rotatable=0;points=[[0,0.5],[1,0.5]];portConstraint=eastwest;fontSize=11;" parent="KC17zQEP-fs8KMPw8967-213" vertex="1">
          <mxGeometry y="110.00470588235294" width="344" height="20" as="geometry" />
        </mxCell>
        <mxCell id="KC17zQEP-fs8KMPw8967-219" value="-bankDatabase: BankDatabase" style="text;strokeColor=none;fillColor=none;align=left;verticalAlign=top;spacingLeft=4;spacingRight=4;overflow=hidden;rotatable=0;points=[[0,0.5],[1,0.5]];portConstraint=eastwest;fontSize=11;" parent="KC17zQEP-fs8KMPw8967-213" vertex="1">
          <mxGeometry y="130.00470588235294" width="344" height="20" as="geometry" />
        </mxCell>
        <mxCell id="KC17zQEP-fs8KMPw8967-220" value="-BALANCE_INQUIRY: int" style="text;strokeColor=none;fillColor=none;align=left;verticalAlign=top;spacingLeft=4;spacingRight=4;overflow=hidden;rotatable=0;points=[[0,0.5],[1,0.5]];portConstraint=eastwest;fontSize=11;" parent="KC17zQEP-fs8KMPw8967-213" vertex="1">
          <mxGeometry y="150.00470588235294" width="344" height="22" as="geometry" />
        </mxCell>
        <mxCell id="KC17zQEP-fs8KMPw8967-221" value="-WITHDRAWAL: int" style="text;strokeColor=none;fillColor=none;align=left;verticalAlign=top;spacingLeft=4;spacingRight=4;overflow=hidden;rotatable=0;points=[[0,0.5],[1,0.5]];portConstraint=eastwest;fontSize=11;" parent="KC17zQEP-fs8KMPw8967-213" vertex="1">
          <mxGeometry y="172.00470588235294" width="344" height="18" as="geometry" />
        </mxCell>
        <mxCell id="KC17zQEP-fs8KMPw8967-222" value="-TRANSFER: int" style="text;strokeColor=none;fillColor=none;align=left;verticalAlign=top;spacingLeft=4;spacingRight=4;overflow=hidden;rotatable=0;points=[[0,0.5],[1,0.5]];portConstraint=eastwest;fontSize=11;" parent="KC17zQEP-fs8KMPw8967-213" vertex="1">
          <mxGeometry y="190.00470588235294" width="344" height="20" as="geometry" />
        </mxCell>
        <mxCell id="KC17zQEP-fs8KMPw8967-223" value="-EXIT: int" style="text;strokeColor=none;fillColor=none;align=left;verticalAlign=top;spacingLeft=4;spacingRight=4;overflow=hidden;rotatable=0;points=[[0,0.5],[1,0.5]];portConstraint=eastwest;fontSize=11;" parent="KC17zQEP-fs8KMPw8967-213" vertex="1">
          <mxGeometry y="210.00470588235294" width="344" height="20" as="geometry" />
        </mxCell>
        <mxCell id="KC17zQEP-fs8KMPw8967-224" value="-RECORD: int" style="text;strokeColor=none;fillColor=none;align=left;verticalAlign=top;spacingLeft=4;spacingRight=4;overflow=hidden;rotatable=0;points=[[0,0.5],[1,0.5]];portConstraint=eastwest;fontSize=11;" parent="KC17zQEP-fs8KMPw8967-213" vertex="1">
          <mxGeometry y="230.00470588235294" width="344" height="28" as="geometry" />
        </mxCell>
        <mxCell id="KC17zQEP-fs8KMPw8967-225" style="line;strokeWidth=1;fillColor=none;align=left;verticalAlign=middle;spacingTop=-1;spacingLeft=3;spacingRight=3;rotatable=0;labelPosition=right;points=[];portConstraint=eastwest;strokeColor=inherit;fontSize=11;" parent="KC17zQEP-fs8KMPw8967-213" vertex="1">
          <mxGeometry y="258.00470588235294" width="344" height="8" as="geometry" />
        </mxCell>
        <mxCell id="KC17zQEP-fs8KMPw8967-421" value="&lt;&lt;constructor&gt;&gt;ATM()" style="text;strokeColor=none;fillColor=none;align=left;verticalAlign=top;spacingLeft=4;spacingRight=4;overflow=hidden;rotatable=0;points=[[0,0.5],[1,0.5]];portConstraint=eastwest;fontSize=11;" parent="KC17zQEP-fs8KMPw8967-213" vertex="1">
          <mxGeometry y="266.00470588235294" width="344" height="20" as="geometry" />
        </mxCell>
        <mxCell id="KC17zQEP-fs8KMPw8967-226" value="+run() : void" style="text;strokeColor=none;fillColor=none;align=left;verticalAlign=top;spacingLeft=4;spacingRight=4;overflow=hidden;rotatable=0;points=[[0,0.5],[1,0.5]];portConstraint=eastwest;fontSize=11;" parent="KC17zQEP-fs8KMPw8967-213" vertex="1">
          <mxGeometry y="286.00470588235294" width="344" height="24" as="geometry" />
        </mxCell>
        <mxCell id="KC17zQEP-fs8KMPw8967-227" value="-authenticateUser() : void" style="text;strokeColor=none;fillColor=none;align=left;verticalAlign=top;spacingLeft=4;spacingRight=4;overflow=hidden;rotatable=0;points=[[0,0.5],[1,0.5]];portConstraint=eastwest;fontSize=11;" parent="KC17zQEP-fs8KMPw8967-213" vertex="1">
          <mxGeometry y="310.00470588235294" width="344" height="20" as="geometry" />
        </mxCell>
        <mxCell id="KC17zQEP-fs8KMPw8967-228" value="-performTransactions() : void" style="text;strokeColor=none;fillColor=none;align=left;verticalAlign=top;spacingLeft=4;spacingRight=4;overflow=hidden;rotatable=0;points=[[0,0.5],[1,0.5]];portConstraint=eastwest;fontSize=11;" parent="KC17zQEP-fs8KMPw8967-213" vertex="1">
          <mxGeometry y="330.00470588235294" width="344" height="20" as="geometry" />
        </mxCell>
        <mxCell id="KC17zQEP-fs8KMPw8967-229" value="-displayMainMenu() : int" style="text;strokeColor=none;fillColor=none;align=left;verticalAlign=top;spacingLeft=4;spacingRight=4;overflow=hidden;rotatable=0;points=[[0,0.5],[1,0.5]];portConstraint=eastwest;fontSize=11;" parent="KC17zQEP-fs8KMPw8967-213" vertex="1">
          <mxGeometry y="350.00470588235294" width="344" height="20" as="geometry" />
        </mxCell>
        <mxCell id="KC17zQEP-fs8KMPw8967-230" value="-createTransaction(type: int) : Transaction" style="text;strokeColor=none;fillColor=none;align=left;verticalAlign=top;spacingLeft=4;spacingRight=4;overflow=hidden;rotatable=0;points=[[0,0.5],[1,0.5]];portConstraint=eastwest;fontSize=11;" parent="KC17zQEP-fs8KMPw8967-213" vertex="1">
          <mxGeometry y="370.00470588235294" width="344" height="28" as="geometry" />
        </mxCell>
        <mxCell id="KC17zQEP-fs8KMPw8967-449" style="edgeStyle=orthogonalEdgeStyle;rounded=0;orthogonalLoop=1;jettySize=auto;html=1;exitX=0.75;exitY=0;exitDx=0;exitDy=0;entryX=0;entryY=0.5;entryDx=0;entryDy=0;startArrow=diamondThin;startFill=1;endArrow=none;endFill=0;startSize=16;fontSize=11;" parent="1" source="KC17zQEP-fs8KMPw8967-231" target="KC17zQEP-fs8KMPw8967-259" edge="1">
          <mxGeometry relative="1" as="geometry" />
        </mxCell>
        <mxCell id="KC17zQEP-fs8KMPw8967-231" value="BankDatabase" style="swimlane;fontStyle=1;align=center;verticalAlign=top;childLayout=stackLayout;horizontal=1;startSize=28.571428571428573;horizontalStack=0;resizeParent=1;resizeParentMax=0;resizeLast=0;collapsible=0;marginBottom=0;fontSize=11;" parent="1" vertex="1">
          <mxGeometry x="430" y="-80" width="620" height="319.00142857142856" as="geometry" />
        </mxCell>
        <mxCell id="KC17zQEP-fs8KMPw8967-232" value="-accounts: Account[]" style="text;strokeColor=none;fillColor=none;align=left;verticalAlign=top;spacingLeft=4;spacingRight=4;overflow=hidden;rotatable=0;points=[[0,0.5],[1,0.5]];portConstraint=eastwest;fontSize=11;" parent="KC17zQEP-fs8KMPw8967-231" vertex="1">
          <mxGeometry y="28.571428571428573" width="620" height="29" as="geometry" />
        </mxCell>
        <mxCell id="KC17zQEP-fs8KMPw8967-233" style="line;strokeWidth=1;fillColor=none;align=left;verticalAlign=middle;spacingTop=-1;spacingLeft=3;spacingRight=3;rotatable=0;labelPosition=right;points=[];portConstraint=eastwest;strokeColor=inherit;fontSize=11;" parent="KC17zQEP-fs8KMPw8967-231" vertex="1">
          <mxGeometry y="57.57142857142857" width="620" height="8" as="geometry" />
        </mxCell>
        <mxCell id="KC17zQEP-fs8KMPw8967-234" value="&lt;&lt;constructor&gt;&gt;BankDatabase()" style="text;strokeColor=none;fillColor=none;align=left;verticalAlign=top;spacingLeft=4;spacingRight=4;overflow=hidden;rotatable=0;points=[[0,0.5],[1,0.5]];portConstraint=eastwest;fontSize=11;" parent="KC17zQEP-fs8KMPw8967-231" vertex="1">
          <mxGeometry y="65.57142857142857" width="620" height="24.43" as="geometry" />
        </mxCell>
        <mxCell id="KC17zQEP-fs8KMPw8967-235" value="+getAccount(accountNumber: int) : Account" style="text;strokeColor=none;fillColor=none;align=left;verticalAlign=top;spacingLeft=4;spacingRight=4;overflow=hidden;rotatable=0;points=[[0,0.5],[1,0.5]];portConstraint=eastwest;fontSize=11;" parent="KC17zQEP-fs8KMPw8967-231" vertex="1">
          <mxGeometry y="90.00142857142856" width="620" height="20" as="geometry" />
        </mxCell>
        <mxCell id="KC17zQEP-fs8KMPw8967-236" value="+authenticateUser(userAccountNumber: int, userPIN: int) : boolean" style="text;strokeColor=none;fillColor=none;align=left;verticalAlign=top;spacingLeft=4;spacingRight=4;overflow=hidden;rotatable=0;points=[[0,0.5],[1,0.5]];portConstraint=eastwest;fontSize=11;" parent="KC17zQEP-fs8KMPw8967-231" vertex="1">
          <mxGeometry y="110.00142857142856" width="620" height="20" as="geometry" />
        </mxCell>
        <mxCell id="KC17zQEP-fs8KMPw8967-237" value="+getAvailableBalance(userAccountNumber: int) : double" style="text;strokeColor=none;fillColor=none;align=left;verticalAlign=top;spacingLeft=4;spacingRight=4;overflow=hidden;rotatable=0;points=[[0,0.5],[1,0.5]];portConstraint=eastwest;fontSize=11;" parent="KC17zQEP-fs8KMPw8967-231" vertex="1">
          <mxGeometry y="130.00142857142856" width="620" height="20" as="geometry" />
        </mxCell>
        <mxCell id="KC17zQEP-fs8KMPw8967-238" value="+getTotalBalance(userAccountNumber: int) : double" style="text;strokeColor=none;fillColor=none;align=left;verticalAlign=top;spacingLeft=4;spacingRight=4;overflow=hidden;rotatable=0;points=[[0,0.5],[1,0.5]];portConstraint=eastwest;fontSize=11;" parent="KC17zQEP-fs8KMPw8967-231" vertex="1">
          <mxGeometry y="150.00142857142856" width="620" height="20" as="geometry" />
        </mxCell>
        <mxCell id="KC17zQEP-fs8KMPw8967-239" value="+credit(userAccountNumber: int, amount: double) : void" style="text;strokeColor=none;fillColor=none;align=left;verticalAlign=top;spacingLeft=4;spacingRight=4;overflow=hidden;rotatable=0;points=[[0,0.5],[1,0.5]];portConstraint=eastwest;fontSize=11;" parent="KC17zQEP-fs8KMPw8967-231" vertex="1">
          <mxGeometry y="170.00142857142856" width="620" height="20" as="geometry" />
        </mxCell>
        <mxCell id="KC17zQEP-fs8KMPw8967-240" value="+debit(userAccountNumber: int, amount: double) : void" style="text;strokeColor=none;fillColor=none;align=left;verticalAlign=top;spacingLeft=4;spacingRight=4;overflow=hidden;rotatable=0;points=[[0,0.5],[1,0.5]];portConstraint=eastwest;fontSize=11;" parent="KC17zQEP-fs8KMPw8967-231" vertex="1">
          <mxGeometry y="190.00142857142856" width="620" height="20" as="geometry" />
        </mxCell>
        <mxCell id="KC17zQEP-fs8KMPw8967-241" value="+isAccountNumberExist(userAccountNumber: int) : int" style="text;strokeColor=none;fillColor=none;align=left;verticalAlign=top;spacingLeft=4;spacingRight=4;overflow=hidden;rotatable=0;points=[[0,0.5],[1,0.5]];portConstraint=eastwest;fontSize=11;" parent="KC17zQEP-fs8KMPw8967-231" vertex="1">
          <mxGeometry y="210.00142857142856" width="620" height="20" as="geometry" />
        </mxCell>
        <mxCell id="KC17zQEP-fs8KMPw8967-242" value="+transfer(senderAccounts: int, receiverAccounts: int, amount: double) : void" style="text;strokeColor=none;fillColor=none;align=left;verticalAlign=top;spacingLeft=4;spacingRight=4;overflow=hidden;rotatable=0;points=[[0,0.5],[1,0.5]];portConstraint=eastwest;fontSize=11;" parent="KC17zQEP-fs8KMPw8967-231" vertex="1">
          <mxGeometry y="230.00142857142856" width="620" height="20" as="geometry" />
        </mxCell>
        <mxCell id="KC17zQEP-fs8KMPw8967-243" value="+isLimitAccountConditionChecker(accountNumber: int) : boolean" style="text;strokeColor=none;fillColor=none;align=left;verticalAlign=top;spacingLeft=4;spacingRight=4;overflow=hidden;rotatable=0;points=[[0,0.5],[1,0.5]];portConstraint=eastwest;fontSize=11;" parent="KC17zQEP-fs8KMPw8967-231" vertex="1">
          <mxGeometry y="250.00142857142856" width="620" height="20" as="geometry" />
        </mxCell>
        <mxCell id="KC17zQEP-fs8KMPw8967-244" value="+getAccountType(userAccountNumber: int) : String" style="text;strokeColor=none;fillColor=none;align=left;verticalAlign=top;spacingLeft=4;spacingRight=4;overflow=hidden;rotatable=0;points=[[0,0.5],[1,0.5]];portConstraint=eastwest;fontSize=11;" parent="KC17zQEP-fs8KMPw8967-231" vertex="1">
          <mxGeometry y="270.00142857142856" width="620" height="20" as="geometry" />
        </mxCell>
        <mxCell id="KC17zQEP-fs8KMPw8967-444" style="edgeStyle=orthogonalEdgeStyle;rounded=0;orthogonalLoop=1;jettySize=auto;html=1;endArrow=none;endFill=0;fontSize=11;" parent="KC17zQEP-fs8KMPw8967-231" edge="1">
          <mxGeometry relative="1" as="geometry">
            <mxPoint x="1621.3334147135415" y="700" as="targetPoint" />
            <mxPoint x="550" y="320" as="sourcePoint" />
            <Array as="points">
              <mxPoint x="550" y="700" />
            </Array>
          </mxGeometry>
        </mxCell>
        <mxCell id="KC17zQEP-fs8KMPw8967-245" value="+getRateOrLimit(userAccountNumber: int) : double" style="text;strokeColor=none;fillColor=none;align=left;verticalAlign=top;spacingLeft=4;spacingRight=4;overflow=hidden;rotatable=0;points=[[0,0.5],[1,0.5]];portConstraint=eastwest;fontSize=11;" parent="KC17zQEP-fs8KMPw8967-231" vertex="1">
          <mxGeometry y="290.00142857142856" width="620" height="29" as="geometry" />
        </mxCell>
        <mxCell id="KC17zQEP-fs8KMPw8967-246" value="Account" style="swimlane;fontStyle=1;align=center;verticalAlign=top;childLayout=stackLayout;horizontal=1;startSize=28.571428571428573;horizontalStack=0;resizeParent=1;resizeParentMax=0;resizeLast=0;collapsible=0;marginBottom=0;fontSize=11;" parent="1" vertex="1">
          <mxGeometry x="1120" y="-550" width="730" height="339.00142857142856" as="geometry" />
        </mxCell>
        <mxCell id="KC17zQEP-fs8KMPw8967-247" value="-accountNumber: int" style="text;strokeColor=none;fillColor=none;align=left;verticalAlign=top;spacingLeft=4;spacingRight=4;overflow=hidden;rotatable=0;points=[[0,0.5],[1,0.5]];portConstraint=eastwest;fontSize=11;" parent="KC17zQEP-fs8KMPw8967-246" vertex="1">
          <mxGeometry y="28.571428571428573" width="730" height="21.43" as="geometry" />
        </mxCell>
        <mxCell id="KC17zQEP-fs8KMPw8967-248" value="-pin: int" style="text;strokeColor=none;fillColor=none;align=left;verticalAlign=top;spacingLeft=4;spacingRight=4;overflow=hidden;rotatable=0;points=[[0,0.5],[1,0.5]];portConstraint=eastwest;fontSize=11;" parent="KC17zQEP-fs8KMPw8967-246" vertex="1">
          <mxGeometry y="50.001428571428576" width="730" height="20" as="geometry" />
        </mxCell>
        <mxCell id="KC17zQEP-fs8KMPw8967-249" value="-availableBalance: double" style="text;strokeColor=none;fillColor=none;align=left;verticalAlign=top;spacingLeft=4;spacingRight=4;overflow=hidden;rotatable=0;points=[[0,0.5],[1,0.5]];portConstraint=eastwest;fontSize=11;" parent="KC17zQEP-fs8KMPw8967-246" vertex="1">
          <mxGeometry y="70.00142857142858" width="730" height="20" as="geometry" />
        </mxCell>
        <mxCell id="KC17zQEP-fs8KMPw8967-250" value="-totalBalance: double" style="text;strokeColor=none;fillColor=none;align=left;verticalAlign=top;spacingLeft=4;spacingRight=4;overflow=hidden;rotatable=0;points=[[0,0.5],[1,0.5]];portConstraint=eastwest;fontSize=11;" parent="KC17zQEP-fs8KMPw8967-246" vertex="1">
          <mxGeometry y="90.00142857142858" width="730" height="20" as="geometry" />
        </mxCell>
        <mxCell id="KC17zQEP-fs8KMPw8967-251" value="-accountType: String" style="text;strokeColor=none;fillColor=none;align=left;verticalAlign=top;spacingLeft=4;spacingRight=4;overflow=hidden;rotatable=0;points=[[0,0.5],[1,0.5]];portConstraint=eastwest;fontSize=11;" parent="KC17zQEP-fs8KMPw8967-246" vertex="1">
          <mxGeometry y="110.00142857142858" width="730" height="29" as="geometry" />
        </mxCell>
        <mxCell id="KC17zQEP-fs8KMPw8967-252" style="line;strokeWidth=1;fillColor=none;align=left;verticalAlign=middle;spacingTop=-1;spacingLeft=3;spacingRight=3;rotatable=0;labelPosition=right;points=[];portConstraint=eastwest;strokeColor=inherit;fontSize=11;" parent="KC17zQEP-fs8KMPw8967-246" vertex="1">
          <mxGeometry y="139.00142857142856" width="730" height="8" as="geometry" />
        </mxCell>
        <mxCell id="KC17zQEP-fs8KMPw8967-253" value="&lt;&lt;constructor&gt;&gt;Account(theAccountNumber: int, thePIN: int, theAvailableBalance: double, &#xa;theTotalBalance: double, theAccountType: String)" style="text;strokeColor=none;fillColor=none;align=left;verticalAlign=top;spacingLeft=4;spacingRight=4;overflow=hidden;rotatable=0;points=[[0,0.5],[1,0.5]];portConstraint=eastwest;fontSize=11;" parent="KC17zQEP-fs8KMPw8967-246" vertex="1">
          <mxGeometry y="147.00142857142856" width="730" height="43" as="geometry" />
        </mxCell>
        <mxCell id="KC17zQEP-fs8KMPw8967-254" value="+validatePIN(userPIN: int) : boolean" style="text;strokeColor=none;fillColor=none;align=left;verticalAlign=top;spacingLeft=4;spacingRight=4;overflow=hidden;rotatable=0;points=[[0,0.5],[1,0.5]];portConstraint=eastwest;fontSize=11;" parent="KC17zQEP-fs8KMPw8967-246" vertex="1">
          <mxGeometry y="190.00142857142856" width="730" height="20" as="geometry" />
        </mxCell>
        <mxCell id="KC17zQEP-fs8KMPw8967-255" value="+getAvailableBalance() : double" style="text;strokeColor=none;fillColor=none;align=left;verticalAlign=top;spacingLeft=4;spacingRight=4;overflow=hidden;rotatable=0;points=[[0,0.5],[1,0.5]];portConstraint=eastwest;fontSize=11;" parent="KC17zQEP-fs8KMPw8967-246" vertex="1">
          <mxGeometry y="210.00142857142856" width="730" height="20" as="geometry" />
        </mxCell>
        <mxCell id="KC17zQEP-fs8KMPw8967-256" value="+getTotalBalance() : double" style="text;strokeColor=none;fillColor=none;align=left;verticalAlign=top;spacingLeft=4;spacingRight=4;overflow=hidden;rotatable=0;points=[[0,0.5],[1,0.5]];portConstraint=eastwest;fontSize=11;" parent="KC17zQEP-fs8KMPw8967-246" vertex="1">
          <mxGeometry y="230.00142857142856" width="730" height="20" as="geometry" />
        </mxCell>
        <mxCell id="KC17zQEP-fs8KMPw8967-257" value="+credit(amount: double) : void" style="text;strokeColor=none;fillColor=none;align=left;verticalAlign=top;spacingLeft=4;spacingRight=4;overflow=hidden;rotatable=0;points=[[0,0.5],[1,0.5]];portConstraint=eastwest;fontSize=11;" parent="KC17zQEP-fs8KMPw8967-246" vertex="1">
          <mxGeometry y="250.00142857142856" width="730" height="20" as="geometry" />
        </mxCell>
        <mxCell id="KC17zQEP-fs8KMPw8967-258" value="+debit(amount: double) : void" style="text;strokeColor=none;fillColor=none;align=left;verticalAlign=top;spacingLeft=4;spacingRight=4;overflow=hidden;rotatable=0;points=[[0,0.5],[1,0.5]];portConstraint=eastwest;fontSize=11;" parent="KC17zQEP-fs8KMPw8967-246" vertex="1">
          <mxGeometry y="270.00142857142856" width="730" height="20" as="geometry" />
        </mxCell>
        <mxCell id="KC17zQEP-fs8KMPw8967-259" value="+getAccountNumber() : int" style="text;strokeColor=none;fillColor=none;align=left;verticalAlign=top;spacingLeft=4;spacingRight=4;overflow=hidden;rotatable=0;points=[[0,0.5],[1,0.5]];portConstraint=eastwest;fontSize=11;" parent="KC17zQEP-fs8KMPw8967-246" vertex="1">
          <mxGeometry y="290.00142857142856" width="730" height="20" as="geometry" />
        </mxCell>
        <mxCell id="KC17zQEP-fs8KMPw8967-260" value="+getAccountType() : String" style="text;strokeColor=none;fillColor=none;align=left;verticalAlign=top;spacingLeft=4;spacingRight=4;overflow=hidden;rotatable=0;points=[[0,0.5],[1,0.5]];portConstraint=eastwest;fontSize=11;" parent="KC17zQEP-fs8KMPw8967-246" vertex="1">
          <mxGeometry y="310.00142857142856" width="730" height="29" as="geometry" />
        </mxCell>
        <mxCell id="KC17zQEP-fs8KMPw8967-261" value="SavingAccount" style="swimlane;fontStyle=1;align=center;verticalAlign=top;childLayout=stackLayout;horizontal=1;startSize=33.142857142857146;horizontalStack=0;resizeParent=1;resizeParentMax=0;resizeLast=0;collapsible=0;marginBottom=0;fontSize=11;" parent="1" vertex="1">
          <mxGeometry x="1185" y="-170" width="560" height="213.00285714285712" as="geometry" />
        </mxCell>
        <mxCell id="KC17zQEP-fs8KMPw8967-262" value="-InterestRate: double" style="text;strokeColor=none;fillColor=none;align=left;verticalAlign=top;spacingLeft=4;spacingRight=4;overflow=hidden;rotatable=0;points=[[0,0.5],[1,0.5]];portConstraint=eastwest;fontSize=11;" parent="KC17zQEP-fs8KMPw8967-261" vertex="1">
          <mxGeometry y="33.142857142857146" width="560" height="33" as="geometry" />
        </mxCell>
        <mxCell id="KC17zQEP-fs8KMPw8967-263" style="line;strokeWidth=1;fillColor=none;align=left;verticalAlign=middle;spacingTop=-1;spacingLeft=3;spacingRight=3;rotatable=0;labelPosition=right;points=[];portConstraint=eastwest;strokeColor=inherit;fontSize=11;" parent="KC17zQEP-fs8KMPw8967-261" vertex="1">
          <mxGeometry y="66.14285714285714" width="560" height="8" as="geometry" />
        </mxCell>
        <mxCell id="KC17zQEP-fs8KMPw8967-446" style="edgeStyle=orthogonalEdgeStyle;rounded=0;orthogonalLoop=1;jettySize=auto;html=1;exitX=1;exitY=0.5;exitDx=0;exitDy=0;endArrow=none;endFill=0;fontSize=11;" parent="KC17zQEP-fs8KMPw8967-261" source="KC17zQEP-fs8KMPw8967-264" edge="1">
          <mxGeometry relative="1" as="geometry">
            <mxPoint x="645" y="97.66666666666674" as="targetPoint" />
          </mxGeometry>
        </mxCell>
        <mxCell id="KC17zQEP-fs8KMPw8967-264" value="&lt;&lt;constructor&gt;&gt;SavingAccount(theAccountNumber: int, thePIN: int, &#xa;theAvailableBalance: double, theTotalBalance: double)" style="text;strokeColor=none;fillColor=none;align=left;verticalAlign=top;spacingLeft=4;spacingRight=4;overflow=hidden;rotatable=0;points=[[0,0.5],[1,0.5]];portConstraint=eastwest;fontSize=11;" parent="KC17zQEP-fs8KMPw8967-261" vertex="1">
          <mxGeometry y="74.14285714285714" width="560" height="45.86" as="geometry" />
        </mxCell>
        <mxCell id="KC17zQEP-fs8KMPw8967-265" value="+SetInterestRate(theInterestRate: double) : void" style="text;strokeColor=none;fillColor=none;align=left;verticalAlign=top;spacingLeft=4;spacingRight=4;overflow=hidden;rotatable=0;points=[[0,0.5],[1,0.5]];portConstraint=eastwest;fontSize=11;" parent="KC17zQEP-fs8KMPw8967-261" vertex="1">
          <mxGeometry y="120.00285714285714" width="560" height="20" as="geometry" />
        </mxCell>
        <mxCell id="KC17zQEP-fs8KMPw8967-266" value="+getInterestRate() : double" style="text;strokeColor=none;fillColor=none;align=left;verticalAlign=top;spacingLeft=4;spacingRight=4;overflow=hidden;rotatable=0;points=[[0,0.5],[1,0.5]];portConstraint=eastwest;fontSize=11;" parent="KC17zQEP-fs8KMPw8967-261" vertex="1">
          <mxGeometry y="140.00285714285712" width="560" height="20" as="geometry" />
        </mxCell>
        <mxCell id="KC17zQEP-fs8KMPw8967-267" value="+expectedDay(days: int) : String" style="text;strokeColor=none;fillColor=none;align=left;verticalAlign=top;spacingLeft=4;spacingRight=4;overflow=hidden;rotatable=0;points=[[0,0.5],[1,0.5]];portConstraint=eastwest;fontSize=11;" parent="KC17zQEP-fs8KMPw8967-261" vertex="1">
          <mxGeometry y="160.00285714285712" width="560" height="20" as="geometry" />
        </mxCell>
        <mxCell id="KC17zQEP-fs8KMPw8967-268" value="+calculateInterest(annum: int, screen: Screen) : double" style="text;strokeColor=none;fillColor=none;align=left;verticalAlign=top;spacingLeft=4;spacingRight=4;overflow=hidden;rotatable=0;points=[[0,0.5],[1,0.5]];portConstraint=eastwest;fontSize=11;" parent="KC17zQEP-fs8KMPw8967-261" vertex="1">
          <mxGeometry y="180.00285714285712" width="560" height="33" as="geometry" />
        </mxCell>
        <mxCell id="KC17zQEP-fs8KMPw8967-269" value="ChequeAccount" style="swimlane;fontStyle=1;align=center;verticalAlign=top;childLayout=stackLayout;horizontal=1;startSize=36.8;horizontalStack=0;resizeParent=1;resizeParentMax=0;resizeLast=0;collapsible=0;marginBottom=0;fontSize=11;" parent="1" vertex="1">
          <mxGeometry x="1180" y="120" width="570" height="190" as="geometry" />
        </mxCell>
        <mxCell id="KC17zQEP-fs8KMPw8967-270" value="-cLimit: double" style="text;strokeColor=none;fillColor=none;align=left;verticalAlign=top;spacingLeft=4;spacingRight=4;overflow=hidden;rotatable=0;points=[[0,0.5],[1,0.5]];portConstraint=eastwest;fontSize=11;" parent="KC17zQEP-fs8KMPw8967-269" vertex="1">
          <mxGeometry y="36.8" width="570" height="37" as="geometry" />
        </mxCell>
        <mxCell id="KC17zQEP-fs8KMPw8967-271" style="line;strokeWidth=1;fillColor=none;align=left;verticalAlign=middle;spacingTop=-1;spacingLeft=3;spacingRight=3;rotatable=0;labelPosition=right;points=[];portConstraint=eastwest;strokeColor=inherit;fontSize=11;" parent="KC17zQEP-fs8KMPw8967-269" vertex="1">
          <mxGeometry y="73.8" width="570" height="8" as="geometry" />
        </mxCell>
        <mxCell id="KC17zQEP-fs8KMPw8967-272" value="&lt;&lt;constructor&gt;&gt;ChequeAccount(theAccountNumber: int, thePIN: int, &#xa;theAvailableBalance: double, theTotalBalance: double)" style="text;strokeColor=none;fillColor=none;align=left;verticalAlign=top;spacingLeft=4;spacingRight=4;overflow=hidden;rotatable=0;points=[[0,0.5],[1,0.5]];portConstraint=eastwest;fontSize=11;" parent="KC17zQEP-fs8KMPw8967-269" vertex="1">
          <mxGeometry y="81.8" width="570" height="48.2" as="geometry" />
        </mxCell>
        <mxCell id="KC17zQEP-fs8KMPw8967-273" value="+setcLimit(c2Limit: double) : void" style="text;strokeColor=none;fillColor=none;align=left;verticalAlign=top;spacingLeft=4;spacingRight=4;overflow=hidden;rotatable=0;points=[[0,0.5],[1,0.5]];portConstraint=eastwest;fontSize=11;" parent="KC17zQEP-fs8KMPw8967-269" vertex="1">
          <mxGeometry y="130" width="570" height="20" as="geometry" />
        </mxCell>
        <mxCell id="KC17zQEP-fs8KMPw8967-274" value="+getcLimit() : double" style="text;strokeColor=none;fillColor=none;align=left;verticalAlign=top;spacingLeft=4;spacingRight=4;overflow=hidden;rotatable=0;points=[[0,0.5],[1,0.5]];portConstraint=eastwest;fontSize=11;" parent="KC17zQEP-fs8KMPw8967-269" vertex="1">
          <mxGeometry y="150" width="570" height="40" as="geometry" />
        </mxCell>
        <mxCell id="KC17zQEP-fs8KMPw8967-275" value="Transaction" style="swimlane;fontStyle=1;align=center;verticalAlign=top;childLayout=stackLayout;horizontal=1;startSize=30.4;horizontalStack=0;resizeParent=1;resizeParentMax=0;resizeLast=0;collapsible=0;marginBottom=0;fontSize=11;" parent="1" vertex="1">
          <mxGeometry x="190" y="321.1" width="480" height="300" as="geometry" />
        </mxCell>
        <mxCell id="KC17zQEP-fs8KMPw8967-277" value="-screen: Screen" style="text;strokeColor=none;fillColor=none;align=left;verticalAlign=top;spacingLeft=4;spacingRight=4;overflow=hidden;rotatable=0;points=[[0,0.5],[1,0.5]];portConstraint=eastwest;fontSize=11;" parent="KC17zQEP-fs8KMPw8967-275" vertex="1">
          <mxGeometry y="30.4" width="480" height="30" as="geometry" />
        </mxCell>
        <mxCell id="KC17zQEP-fs8KMPw8967-276" value="-accountNumber: int" style="text;strokeColor=none;fillColor=none;align=left;verticalAlign=top;spacingLeft=4;spacingRight=4;overflow=hidden;rotatable=0;points=[[0,0.5],[1,0.5]];portConstraint=eastwest;fontSize=11;" parent="KC17zQEP-fs8KMPw8967-275" vertex="1">
          <mxGeometry y="60.4" width="480" height="30" as="geometry" />
        </mxCell>
        <mxCell id="KC17zQEP-fs8KMPw8967-278" value="-bankDatabase: BankDatabase" style="text;strokeColor=none;fillColor=none;align=left;verticalAlign=top;spacingLeft=4;spacingRight=4;overflow=hidden;rotatable=0;points=[[0,0.5],[1,0.5]];portConstraint=eastwest;fontSize=11;" parent="KC17zQEP-fs8KMPw8967-275" vertex="1">
          <mxGeometry y="90.4" width="480" height="30" as="geometry" />
        </mxCell>
        <mxCell id="KC17zQEP-fs8KMPw8967-279" style="line;strokeWidth=1;fillColor=none;align=left;verticalAlign=middle;spacingTop=-1;spacingLeft=3;spacingRight=3;rotatable=0;labelPosition=right;points=[];portConstraint=eastwest;strokeColor=inherit;fontSize=11;" parent="KC17zQEP-fs8KMPw8967-275" vertex="1">
          <mxGeometry y="120.4" width="480" height="8" as="geometry" />
        </mxCell>
        <mxCell id="KC17zQEP-fs8KMPw8967-280" value="&lt;&lt;constructor&gt;&gt;Transaction(userAccountNumber: int, &#xa;atmScreen: Screen, atmBankDatabase: BankDatabase)" style="text;strokeColor=none;fillColor=none;align=left;verticalAlign=top;spacingLeft=4;spacingRight=4;overflow=hidden;rotatable=0;points=[[0,0.5],[1,0.5]];portConstraint=eastwest;fontSize=11;" parent="KC17zQEP-fs8KMPw8967-275" vertex="1">
          <mxGeometry y="128.4" width="480" height="41.6" as="geometry" />
        </mxCell>
        <mxCell id="KC17zQEP-fs8KMPw8967-281" value="+getAccountNumber() : int" style="text;strokeColor=none;fillColor=none;align=left;verticalAlign=top;spacingLeft=4;spacingRight=4;overflow=hidden;rotatable=0;points=[[0,0.5],[1,0.5]];portConstraint=eastwest;fontSize=11;" parent="KC17zQEP-fs8KMPw8967-275" vertex="1">
          <mxGeometry y="170" width="480" height="20" as="geometry" />
        </mxCell>
        <mxCell id="KC17zQEP-fs8KMPw8967-282" value="+getScreen() : Screen" style="text;strokeColor=none;fillColor=none;align=left;verticalAlign=top;spacingLeft=4;spacingRight=4;overflow=hidden;rotatable=0;points=[[0,0.5],[1,0.5]];portConstraint=eastwest;fontSize=11;" parent="KC17zQEP-fs8KMPw8967-275" vertex="1">
          <mxGeometry y="190" width="480" height="20" as="geometry" />
        </mxCell>
        <mxCell id="KC17zQEP-fs8KMPw8967-283" value="+getBankDatabase() : BankDatabase" style="text;strokeColor=none;fillColor=none;align=left;verticalAlign=top;spacingLeft=4;spacingRight=4;overflow=hidden;rotatable=0;points=[[0,0.5],[1,0.5]];portConstraint=eastwest;fontSize=11;" parent="KC17zQEP-fs8KMPw8967-275" vertex="1">
          <mxGeometry y="210" width="480" height="20" as="geometry" />
        </mxCell>
        <mxCell id="KC17zQEP-fs8KMPw8967-284" value="+execute() : void" style="text;strokeColor=none;fillColor=none;align=left;verticalAlign=top;spacingLeft=4;spacingRight=4;overflow=hidden;rotatable=0;points=[[0,0.5],[1,0.5]];portConstraint=eastwest;fontSize=11;" parent="KC17zQEP-fs8KMPw8967-275" vertex="1">
          <mxGeometry y="230" width="480" height="20" as="geometry" />
        </mxCell>
        <mxCell id="KC17zQEP-fs8KMPw8967-285" value="+isLimitAccountConditionCheckerHappen(amount: double, &#xa;action: String) : boolean" style="text;strokeColor=none;fillColor=none;align=left;verticalAlign=top;spacingLeft=4;spacingRight=4;overflow=hidden;rotatable=0;points=[[0,0.5],[1,0.5]];portConstraint=eastwest;fontSize=11;" parent="KC17zQEP-fs8KMPw8967-275" vertex="1">
          <mxGeometry y="250" width="480" height="50" as="geometry" />
        </mxCell>
        <mxCell id="KC17zQEP-fs8KMPw8967-434" style="edgeStyle=orthogonalEdgeStyle;rounded=0;orthogonalLoop=1;jettySize=auto;html=1;endArrow=none;endFill=0;exitX=0.875;exitY=-0.011;exitDx=0;exitDy=0;exitPerimeter=0;fontSize=11;" parent="1" source="KC17zQEP-fs8KMPw8967-286" edge="1">
          <mxGeometry relative="1" as="geometry">
            <mxPoint x="2050" y="670" as="targetPoint" />
            <Array as="points">
              <mxPoint x="64" y="670" />
            </Array>
          </mxGeometry>
        </mxCell>
        <mxCell id="KC17zQEP-fs8KMPw8967-438" style="edgeStyle=orthogonalEdgeStyle;rounded=0;orthogonalLoop=1;jettySize=auto;html=1;entryX=0.5;entryY=0;entryDx=0;entryDy=0;endArrow=none;endFill=0;fontSize=11;" parent="1" source="KC17zQEP-fs8KMPw8967-286" target="KC17zQEP-fs8KMPw8967-300" edge="1">
          <mxGeometry relative="1" as="geometry">
            <Array as="points">
              <mxPoint x="-113" y="720" />
              <mxPoint x="985" y="720" />
            </Array>
          </mxGeometry>
        </mxCell>
        <mxCell id="KC17zQEP-fs8KMPw8967-286" value="BalanceInquiry" style="swimlane;fontStyle=1;align=center;verticalAlign=top;childLayout=stackLayout;horizontal=1;startSize=40.57142857142857;horizontalStack=0;resizeParent=1;resizeParentMax=0;resizeLast=0;collapsible=0;marginBottom=0;fontSize=11;" parent="1" vertex="1">
          <mxGeometry x="-347.5" y="760" width="470" height="130.57142857142856" as="geometry" />
        </mxCell>
        <mxCell id="KC17zQEP-fs8KMPw8967-287" style="line;strokeWidth=1;fillColor=none;align=left;verticalAlign=middle;spacingTop=-1;spacingLeft=3;spacingRight=3;rotatable=0;labelPosition=right;points=[];portConstraint=eastwest;strokeColor=inherit;fontSize=11;" parent="KC17zQEP-fs8KMPw8967-286" vertex="1">
          <mxGeometry y="40.57142857142857" width="470" height="8" as="geometry" />
        </mxCell>
        <mxCell id="KC17zQEP-fs8KMPw8967-288" value="&lt;&lt;constructor&gt;&gt;BalanceInquiry(userAccountNumber: int, &#xa;atmScreen: Screen, atmBankDatabase: BankDatabase)" style="text;strokeColor=none;fillColor=none;align=left;verticalAlign=top;spacingLeft=4;spacingRight=4;overflow=hidden;rotatable=0;points=[[0,0.5],[1,0.5]];portConstraint=eastwest;fontSize=11;" parent="KC17zQEP-fs8KMPw8967-286" vertex="1">
          <mxGeometry y="48.57142857142857" width="470" height="41" as="geometry" />
        </mxCell>
        <mxCell id="KC17zQEP-fs8KMPw8967-289" value="+execute() : void" style="text;strokeColor=none;fillColor=none;align=left;verticalAlign=top;spacingLeft=4;spacingRight=4;overflow=hidden;rotatable=0;points=[[0,0.5],[1,0.5]];portConstraint=eastwest;fontSize=11;" parent="KC17zQEP-fs8KMPw8967-286" vertex="1">
          <mxGeometry y="89.57142857142857" width="470" height="41" as="geometry" />
        </mxCell>
        <mxCell id="KC17zQEP-fs8KMPw8967-433" style="edgeStyle=orthogonalEdgeStyle;rounded=0;orthogonalLoop=1;jettySize=auto;html=1;exitX=0.876;exitY=-0.005;exitDx=0;exitDy=0;exitPerimeter=0;endArrow=none;endFill=0;fontSize=11;" parent="1" source="KC17zQEP-fs8KMPw8967-290" edge="1">
          <mxGeometry relative="1" as="geometry">
            <mxPoint x="2051.777886284722" y="680" as="targetPoint" />
            <Array as="points">
              <mxPoint x="609" y="680" />
            </Array>
          </mxGeometry>
        </mxCell>
        <mxCell id="KC17zQEP-fs8KMPw8967-439" style="edgeStyle=orthogonalEdgeStyle;rounded=0;orthogonalLoop=1;jettySize=auto;html=1;endArrow=none;endFill=0;startArrow=diamondThin;startFill=1;startSize=16;fontSize=11;" parent="1" source="KC17zQEP-fs8KMPw8967-290" target="KC17zQEP-fs8KMPw8967-335" edge="1">
          <mxGeometry relative="1" as="geometry" />
        </mxCell>
        <mxCell id="KC17zQEP-fs8KMPw8967-290" value="Withdrawal" style="swimlane;fontStyle=1;align=center;verticalAlign=top;childLayout=stackLayout;horizontal=1;startSize=31.11111111111111;horizontalStack=0;resizeParent=1;resizeParentMax=0;resizeLast=0;collapsible=0;marginBottom=0;fontSize=11;" parent="1" vertex="1">
          <mxGeometry x="180" y="760" width="490" height="269.00111111111113" as="geometry" />
        </mxCell>
        <mxCell id="KC17zQEP-fs8KMPw8967-291" value="-amount: int" style="text;strokeColor=none;fillColor=none;align=left;verticalAlign=top;spacingLeft=4;spacingRight=4;overflow=hidden;rotatable=0;points=[[0,0.5],[1,0.5]];portConstraint=eastwest;fontSize=11;" parent="KC17zQEP-fs8KMPw8967-290" vertex="1">
          <mxGeometry y="31.11111111111111" width="490" height="18.89" as="geometry" />
        </mxCell>
        <mxCell id="KC17zQEP-fs8KMPw8967-292" value="-keypad: Keypad" style="text;strokeColor=none;fillColor=none;align=left;verticalAlign=top;spacingLeft=4;spacingRight=4;overflow=hidden;rotatable=0;points=[[0,0.5],[1,0.5]];portConstraint=eastwest;fontSize=11;" parent="KC17zQEP-fs8KMPw8967-290" vertex="1">
          <mxGeometry y="50.001111111111115" width="490" height="20" as="geometry" />
        </mxCell>
        <mxCell id="KC17zQEP-fs8KMPw8967-293" value="-cashDispenser: CashDispenser" style="text;strokeColor=none;fillColor=none;align=left;verticalAlign=top;spacingLeft=4;spacingRight=4;overflow=hidden;rotatable=0;points=[[0,0.5],[1,0.5]];portConstraint=eastwest;fontSize=11;" parent="KC17zQEP-fs8KMPw8967-290" vertex="1">
          <mxGeometry y="70.00111111111111" width="490" height="20" as="geometry" />
        </mxCell>
        <mxCell id="KC17zQEP-fs8KMPw8967-294" value="-CANCELED: int" style="text;strokeColor=none;fillColor=none;align=left;verticalAlign=top;spacingLeft=4;spacingRight=4;overflow=hidden;rotatable=0;points=[[0,0.5],[1,0.5]];portConstraint=eastwest;fontSize=11;" parent="KC17zQEP-fs8KMPw8967-290" vertex="1">
          <mxGeometry y="90.00111111111111" width="490" height="31" as="geometry" />
        </mxCell>
        <mxCell id="KC17zQEP-fs8KMPw8967-295" style="line;strokeWidth=1;fillColor=none;align=left;verticalAlign=middle;spacingTop=-1;spacingLeft=3;spacingRight=3;rotatable=0;labelPosition=right;points=[];portConstraint=eastwest;strokeColor=inherit;fontSize=11;" parent="KC17zQEP-fs8KMPw8967-290" vertex="1">
          <mxGeometry y="121.00111111111111" width="490" height="8" as="geometry" />
        </mxCell>
        <mxCell id="KC17zQEP-fs8KMPw8967-296" value="&lt;&lt;constructor&gt;&gt;Withdrawal(userAccountNumber: int, &#xa;atmScreen: Screen, atmBankDatabase: BankDatabase, &#xa;atmKeypad: Keypad, atmCashDispenser: CashDispenser)" style="text;strokeColor=none;fillColor=none;align=left;verticalAlign=top;spacingLeft=4;spacingRight=4;overflow=hidden;rotatable=0;points=[[0,0.5],[1,0.5]];portConstraint=eastwest;fontSize=11;" parent="KC17zQEP-fs8KMPw8967-290" vertex="1">
          <mxGeometry y="129.00111111111113" width="490" height="66.89" as="geometry" />
        </mxCell>
        <mxCell id="KC17zQEP-fs8KMPw8967-297" value="+execute() : void" style="text;strokeColor=none;fillColor=none;align=left;verticalAlign=top;spacingLeft=4;spacingRight=4;overflow=hidden;rotatable=0;points=[[0,0.5],[1,0.5]];portConstraint=eastwest;fontSize=11;" parent="KC17zQEP-fs8KMPw8967-290" vertex="1">
          <mxGeometry y="195.89111111111112" width="490" height="24.11" as="geometry" />
        </mxCell>
        <mxCell id="KC17zQEP-fs8KMPw8967-299" value="+isMultiplesCondition(amount: int) : boolean" style="text;strokeColor=none;fillColor=none;align=left;verticalAlign=top;spacingLeft=4;spacingRight=4;overflow=hidden;rotatable=0;points=[[0,0.5],[1,0.5]];portConstraint=eastwest;fontSize=11;" parent="KC17zQEP-fs8KMPw8967-290" vertex="1">
          <mxGeometry y="220.00111111111113" width="490" height="20" as="geometry" />
        </mxCell>
        <mxCell id="KC17zQEP-fs8KMPw8967-298" value="-displayMenuOfAmounts() : int" style="text;strokeColor=none;fillColor=none;align=left;verticalAlign=top;spacingLeft=4;spacingRight=4;overflow=hidden;rotatable=0;points=[[0,0.5],[1,0.5]];portConstraint=eastwest;fontSize=11;" parent="KC17zQEP-fs8KMPw8967-290" vertex="1">
          <mxGeometry y="240.00111111111113" width="490" height="29" as="geometry" />
        </mxCell>
        <mxCell id="KC17zQEP-fs8KMPw8967-335" value="CashDispenser" style="swimlane;fontStyle=1;align=center;verticalAlign=top;childLayout=stackLayout;horizontal=1;startSize=28.571428571428573;horizontalStack=0;resizeParent=1;resizeParentMax=0;resizeLast=0;collapsible=0;marginBottom=0;fontSize=11;" parent="1" vertex="1">
          <mxGeometry x="190" y="1110" width="470" height="319.00142857142856" as="geometry" />
        </mxCell>
        <mxCell id="KC17zQEP-fs8KMPw8967-336" value="-INITIAL_COUNT: int[]" style="text;strokeColor=none;fillColor=none;align=left;verticalAlign=top;spacingLeft=4;spacingRight=4;overflow=hidden;rotatable=0;points=[[0,0.5],[1,0.5]];portConstraint=eastwest;fontSize=11;" parent="KC17zQEP-fs8KMPw8967-335" vertex="1">
          <mxGeometry y="28.571428571428573" width="470" height="21.43" as="geometry" />
        </mxCell>
        <mxCell id="KC17zQEP-fs8KMPw8967-337" value="-count: int[]" style="text;strokeColor=none;fillColor=none;align=left;verticalAlign=top;spacingLeft=4;spacingRight=4;overflow=hidden;rotatable=0;points=[[0,0.5],[1,0.5]];portConstraint=eastwest;fontSize=11;" parent="KC17zQEP-fs8KMPw8967-335" vertex="1">
          <mxGeometry y="50.001428571428576" width="470" height="20" as="geometry" />
        </mxCell>
        <mxCell id="KC17zQEP-fs8KMPw8967-338" value="-DENOMINATIONS: int[]" style="text;strokeColor=none;fillColor=none;align=left;verticalAlign=top;spacingLeft=4;spacingRight=4;overflow=hidden;rotatable=0;points=[[0,0.5],[1,0.5]];portConstraint=eastwest;fontSize=11;" parent="KC17zQEP-fs8KMPw8967-335" vertex="1">
          <mxGeometry y="70.00142857142858" width="470" height="20" as="geometry" />
        </mxCell>
        <mxCell id="KC17zQEP-fs8KMPw8967-339" value="-require: int[]" style="text;strokeColor=none;fillColor=none;align=left;verticalAlign=top;spacingLeft=4;spacingRight=4;overflow=hidden;rotatable=0;points=[[0,0.5],[1,0.5]];portConstraint=eastwest;fontSize=11;" parent="KC17zQEP-fs8KMPw8967-335" vertex="1">
          <mxGeometry y="90.00142857142858" width="470" height="29" as="geometry" />
        </mxCell>
        <mxCell id="KC17zQEP-fs8KMPw8967-340" style="line;strokeWidth=1;fillColor=none;align=left;verticalAlign=middle;spacingTop=-1;spacingLeft=3;spacingRight=3;rotatable=0;labelPosition=right;points=[];portConstraint=eastwest;strokeColor=inherit;fontSize=11;" parent="KC17zQEP-fs8KMPw8967-335" vertex="1">
          <mxGeometry y="119.00142857142858" width="470" height="8" as="geometry" />
        </mxCell>
        <mxCell id="KC17zQEP-fs8KMPw8967-341" value="&lt;&lt;constructor&gt;&gt;CashDispenser()" style="text;strokeColor=none;fillColor=none;align=left;verticalAlign=top;spacingLeft=4;spacingRight=4;overflow=hidden;rotatable=0;points=[[0,0.5],[1,0.5]];portConstraint=eastwest;fontSize=11;" parent="KC17zQEP-fs8KMPw8967-335" vertex="1">
          <mxGeometry y="127.00142857142858" width="470" height="23" as="geometry" />
        </mxCell>
        <mxCell id="KC17zQEP-fs8KMPw8967-342" value="+dispenseCash() : void" style="text;strokeColor=none;fillColor=none;align=left;verticalAlign=top;spacingLeft=4;spacingRight=4;overflow=hidden;rotatable=0;points=[[0,0.5],[1,0.5]];portConstraint=eastwest;fontSize=11;" parent="KC17zQEP-fs8KMPw8967-335" vertex="1">
          <mxGeometry y="150.00142857142856" width="470" height="20" as="geometry" />
        </mxCell>
        <mxCell id="KC17zQEP-fs8KMPw8967-343" value="+precheckNumberOfAmountType(amount: int) : boolean" style="text;strokeColor=none;fillColor=none;align=left;verticalAlign=top;spacingLeft=4;spacingRight=4;overflow=hidden;rotatable=0;points=[[0,0.5],[1,0.5]];portConstraint=eastwest;fontSize=11;" parent="KC17zQEP-fs8KMPw8967-335" vertex="1">
          <mxGeometry y="170.00142857142856" width="470" height="20" as="geometry" />
        </mxCell>
        <mxCell id="KC17zQEP-fs8KMPw8967-442" style="edgeStyle=orthogonalEdgeStyle;rounded=0;orthogonalLoop=1;jettySize=auto;html=1;endArrow=none;endFill=0;exitX=0.5;exitY=1.057;exitDx=0;exitDy=0;exitPerimeter=0;fontSize=11;" parent="KC17zQEP-fs8KMPw8967-335" source="KC17zQEP-fs8KMPw8967-349" edge="1">
          <mxGeometry relative="1" as="geometry">
            <mxPoint x="1860" y="-473.5556369357639" as="targetPoint" />
            <mxPoint x="235" y="322" as="sourcePoint" />
            <Array as="points">
              <mxPoint x="235" y="540" />
              <mxPoint x="2180" y="540" />
              <mxPoint x="2180" y="-474" />
            </Array>
          </mxGeometry>
        </mxCell>
        <mxCell id="KC17zQEP-fs8KMPw8967-344" value="+numberOfAmountType(amount: int, index: int) : int" style="text;strokeColor=none;fillColor=none;align=left;verticalAlign=top;spacingLeft=4;spacingRight=4;overflow=hidden;rotatable=0;points=[[0,0.5],[1,0.5]];portConstraint=eastwest;fontSize=11;" parent="KC17zQEP-fs8KMPw8967-335" vertex="1">
          <mxGeometry y="190.00142857142856" width="470" height="20" as="geometry" />
        </mxCell>
        <mxCell id="KC17zQEP-fs8KMPw8967-345" value="+isEmptyInATM() : boolean" style="text;strokeColor=none;fillColor=none;align=left;verticalAlign=top;spacingLeft=4;spacingRight=4;overflow=hidden;rotatable=0;points=[[0,0.5],[1,0.5]];portConstraint=eastwest;fontSize=11;" parent="KC17zQEP-fs8KMPw8967-335" vertex="1">
          <mxGeometry y="210.00142857142856" width="470" height="20" as="geometry" />
        </mxCell>
        <mxCell id="KC17zQEP-fs8KMPw8967-346" value="+isSufficientCashAvailable(amount: int) : boolean" style="text;strokeColor=none;fillColor=none;align=left;verticalAlign=top;spacingLeft=4;spacingRight=4;overflow=hidden;rotatable=0;points=[[0,0.5],[1,0.5]];portConstraint=eastwest;fontSize=11;" parent="KC17zQEP-fs8KMPw8967-335" vertex="1">
          <mxGeometry y="230.00142857142856" width="470" height="20" as="geometry" />
        </mxCell>
        <mxCell id="KC17zQEP-fs8KMPw8967-347" value="+getNumberOfOneThousand() : int" style="text;strokeColor=none;fillColor=none;align=left;verticalAlign=top;spacingLeft=4;spacingRight=4;overflow=hidden;rotatable=0;points=[[0,0.5],[1,0.5]];portConstraint=eastwest;fontSize=11;" parent="KC17zQEP-fs8KMPw8967-335" vertex="1">
          <mxGeometry y="250.00142857142856" width="470" height="20" as="geometry" />
        </mxCell>
        <mxCell id="KC17zQEP-fs8KMPw8967-348" value="+getNumberOfFiveHundred() : int" style="text;strokeColor=none;fillColor=none;align=left;verticalAlign=top;spacingLeft=4;spacingRight=4;overflow=hidden;rotatable=0;points=[[0,0.5],[1,0.5]];portConstraint=eastwest;fontSize=11;" parent="KC17zQEP-fs8KMPw8967-335" vertex="1">
          <mxGeometry y="270.00142857142856" width="470" height="20" as="geometry" />
        </mxCell>
        <mxCell id="KC17zQEP-fs8KMPw8967-349" value="+getNumberOfOneHundred() : int" style="text;strokeColor=none;fillColor=none;align=left;verticalAlign=top;spacingLeft=4;spacingRight=4;overflow=hidden;rotatable=0;points=[[0,0.5],[1,0.5]];portConstraint=eastwest;fontSize=11;" parent="KC17zQEP-fs8KMPw8967-335" vertex="1">
          <mxGeometry y="290.00142857142856" width="470" height="29" as="geometry" />
        </mxCell>
        <mxCell id="KC17zQEP-fs8KMPw8967-350" value="TransactionHistory" style="swimlane;fontStyle=1;align=center;verticalAlign=top;childLayout=stackLayout;horizontal=1;startSize=40;horizontalStack=0;resizeParent=1;resizeParentMax=0;resizeLast=0;collapsible=0;marginBottom=0;fontSize=11;" parent="1" vertex="1">
          <mxGeometry x="-480" y="-450" width="875" height="586" as="geometry" />
        </mxCell>
        <mxCell id="KC17zQEP-fs8KMPw8967-351" value="-transactionHistory: TransactionHistory[]" style="text;strokeColor=none;fillColor=none;align=left;verticalAlign=top;spacingLeft=4;spacingRight=4;overflow=hidden;rotatable=0;points=[[0,0.5],[1,0.5]];portConstraint=eastwest;fontSize=11;" parent="KC17zQEP-fs8KMPw8967-350" vertex="1">
          <mxGeometry y="40" width="875" height="20" as="geometry" />
        </mxCell>
        <mxCell id="KC17zQEP-fs8KMPw8967-352" value="-transactionCount: int" style="text;strokeColor=none;fillColor=none;align=left;verticalAlign=top;spacingLeft=4;spacingRight=4;overflow=hidden;rotatable=0;points=[[0,0.5],[1,0.5]];portConstraint=eastwest;fontSize=11;" parent="KC17zQEP-fs8KMPw8967-350" vertex="1">
          <mxGeometry y="60" width="875" height="20" as="geometry" />
        </mxCell>
        <mxCell id="KC17zQEP-fs8KMPw8967-353" value="-transactionId: String" style="text;strokeColor=none;fillColor=none;align=left;verticalAlign=top;spacingLeft=4;spacingRight=4;overflow=hidden;rotatable=0;points=[[0,0.5],[1,0.5]];portConstraint=eastwest;fontSize=11;" parent="KC17zQEP-fs8KMPw8967-350" vertex="1">
          <mxGeometry y="80" width="875" height="20" as="geometry" />
        </mxCell>
        <mxCell id="KC17zQEP-fs8KMPw8967-354" value="-action: int" style="text;strokeColor=none;fillColor=none;align=left;verticalAlign=top;spacingLeft=4;spacingRight=4;overflow=hidden;rotatable=0;points=[[0,0.5],[1,0.5]];portConstraint=eastwest;fontSize=11;" parent="KC17zQEP-fs8KMPw8967-350" vertex="1">
          <mxGeometry y="100" width="875" height="20" as="geometry" />
        </mxCell>
        <mxCell id="KC17zQEP-fs8KMPw8967-355" value="-ownAccount: int" style="text;strokeColor=none;fillColor=none;align=left;verticalAlign=top;spacingLeft=4;spacingRight=4;overflow=hidden;rotatable=0;points=[[0,0.5],[1,0.5]];portConstraint=eastwest;fontSize=11;" parent="KC17zQEP-fs8KMPw8967-350" vertex="1">
          <mxGeometry y="120" width="875" height="20" as="geometry" />
        </mxCell>
        <mxCell id="KC17zQEP-fs8KMPw8967-356" value="-targetAccount: int" style="text;strokeColor=none;fillColor=none;align=left;verticalAlign=top;spacingLeft=4;spacingRight=4;overflow=hidden;rotatable=0;points=[[0,0.5],[1,0.5]];portConstraint=eastwest;fontSize=11;" parent="KC17zQEP-fs8KMPw8967-350" vertex="1">
          <mxGeometry y="140" width="875" height="20" as="geometry" />
        </mxCell>
        <mxCell id="KC17zQEP-fs8KMPw8967-357" value="-tag: int" style="text;strokeColor=none;fillColor=none;align=left;verticalAlign=top;spacingLeft=4;spacingRight=4;overflow=hidden;rotatable=0;points=[[0,0.5],[1,0.5]];portConstraint=eastwest;fontSize=11;" parent="KC17zQEP-fs8KMPw8967-350" vertex="1">
          <mxGeometry y="160" width="875" height="20" as="geometry" />
        </mxCell>
        <mxCell id="KC17zQEP-fs8KMPw8967-358" value="-subTag: int" style="text;strokeColor=none;fillColor=none;align=left;verticalAlign=top;spacingLeft=4;spacingRight=4;overflow=hidden;rotatable=0;points=[[0,0.5],[1,0.5]];portConstraint=eastwest;fontSize=11;" parent="KC17zQEP-fs8KMPw8967-350" vertex="1">
          <mxGeometry y="180" width="875" height="20" as="geometry" />
        </mxCell>
        <mxCell id="KC17zQEP-fs8KMPw8967-359" value="-amount: double" style="text;strokeColor=none;fillColor=none;align=left;verticalAlign=top;spacingLeft=4;spacingRight=4;overflow=hidden;rotatable=0;points=[[0,0.5],[1,0.5]];portConstraint=eastwest;fontSize=11;" parent="KC17zQEP-fs8KMPw8967-350" vertex="1">
          <mxGeometry y="200" width="875" height="20" as="geometry" />
        </mxCell>
        <mxCell id="KC17zQEP-fs8KMPw8967-360" value="-transactionDate: LocalDateTime" style="text;strokeColor=none;fillColor=none;align=left;verticalAlign=top;spacingLeft=4;spacingRight=4;overflow=hidden;rotatable=0;points=[[0,0.5],[1,0.5]];portConstraint=eastwest;fontSize=11;" parent="KC17zQEP-fs8KMPw8967-350" vertex="1">
          <mxGeometry y="220" width="875" height="20" as="geometry" />
        </mxCell>
        <mxCell id="KC17zQEP-fs8KMPw8967-361" value="-transactionMission: String[]" style="text;strokeColor=none;fillColor=none;align=left;verticalAlign=top;spacingLeft=4;spacingRight=4;overflow=hidden;rotatable=0;points=[[0,0.5],[1,0.5]];portConstraint=eastwest;fontSize=11;" parent="KC17zQEP-fs8KMPw8967-350" vertex="1">
          <mxGeometry y="240" width="875" height="26" as="geometry" />
        </mxCell>
        <mxCell id="KC17zQEP-fs8KMPw8967-362" style="line;strokeWidth=1;fillColor=none;align=left;verticalAlign=middle;spacingTop=-1;spacingLeft=3;spacingRight=3;rotatable=0;labelPosition=right;points=[];portConstraint=eastwest;strokeColor=inherit;fontSize=11;" parent="KC17zQEP-fs8KMPw8967-350" vertex="1">
          <mxGeometry y="266" width="875" height="8" as="geometry" />
        </mxCell>
        <mxCell id="KC17zQEP-fs8KMPw8967-363" value="&lt;&lt;constructor&gt;&gt;TransactionHistory(action: int, ownAccount: int, &#xa;targetAccount: int, tag: int, subTag: int, amounts: double)" style="text;strokeColor=none;fillColor=none;align=left;verticalAlign=top;spacingLeft=4;spacingRight=4;overflow=hidden;rotatable=0;points=[[0,0.5],[1,0.5]];portConstraint=eastwest;fontSize=11;" parent="KC17zQEP-fs8KMPw8967-350" vertex="1">
          <mxGeometry y="274" width="875" height="46" as="geometry" />
        </mxCell>
        <mxCell id="KC17zQEP-fs8KMPw8967-364" value="-addToHistory(history: TransactionHistory) : void" style="text;strokeColor=none;fillColor=none;align=left;verticalAlign=top;spacingLeft=4;spacingRight=4;overflow=hidden;rotatable=0;points=[[0,0.5],[1,0.5]];portConstraint=eastwest;fontSize=11;" parent="KC17zQEP-fs8KMPw8967-350" vertex="1">
          <mxGeometry y="320" width="875" height="20" as="geometry" />
        </mxCell>
        <mxCell id="KC17zQEP-fs8KMPw8967-365" value="+checkHistory(account: int) : void" style="text;strokeColor=none;fillColor=none;align=left;verticalAlign=top;spacingLeft=4;spacingRight=4;overflow=hidden;rotatable=0;points=[[0,0.5],[1,0.5]];portConstraint=eastwest;fontSize=11;" parent="KC17zQEP-fs8KMPw8967-350" vertex="1">
          <mxGeometry y="340" width="875" height="20" as="geometry" />
        </mxCell>
        <mxCell id="KC17zQEP-fs8KMPw8967-366" value="-printHistory(index: int) : void" style="text;strokeColor=none;fillColor=none;align=left;verticalAlign=top;spacingLeft=4;spacingRight=4;overflow=hidden;rotatable=0;points=[[0,0.5],[1,0.5]];portConstraint=eastwest;fontSize=11;" parent="KC17zQEP-fs8KMPw8967-350" vertex="1">
          <mxGeometry y="360" width="875" height="20" as="geometry" />
        </mxCell>
        <mxCell id="KC17zQEP-fs8KMPw8967-367" value="+clearHistory() : void" style="text;strokeColor=none;fillColor=none;align=left;verticalAlign=top;spacingLeft=4;spacingRight=4;overflow=hidden;rotatable=0;points=[[0,0.5],[1,0.5]];portConstraint=eastwest;fontSize=11;" parent="KC17zQEP-fs8KMPw8967-350" vertex="1">
          <mxGeometry y="380" width="875" height="20" as="geometry" />
        </mxCell>
        <mxCell id="KC17zQEP-fs8KMPw8967-368" value="-generateTransactionId() : String" style="text;strokeColor=none;fillColor=none;align=left;verticalAlign=top;spacingLeft=4;spacingRight=4;overflow=hidden;rotatable=0;points=[[0,0.5],[1,0.5]];portConstraint=eastwest;fontSize=11;" parent="KC17zQEP-fs8KMPw8967-350" vertex="1">
          <mxGeometry y="400" width="875" height="20" as="geometry" />
        </mxCell>
        <mxCell id="KC17zQEP-fs8KMPw8967-369" value="+getTransactionId() : String" style="text;strokeColor=none;fillColor=none;align=left;verticalAlign=top;spacingLeft=4;spacingRight=4;overflow=hidden;rotatable=0;points=[[0,0.5],[1,0.5]];portConstraint=eastwest;fontSize=11;" parent="KC17zQEP-fs8KMPw8967-350" vertex="1">
          <mxGeometry y="420" width="875" height="20" as="geometry" />
        </mxCell>
        <mxCell id="KC17zQEP-fs8KMPw8967-370" value="+getOwnAccount() : int" style="text;strokeColor=none;fillColor=none;align=left;verticalAlign=top;spacingLeft=4;spacingRight=4;overflow=hidden;rotatable=0;points=[[0,0.5],[1,0.5]];portConstraint=eastwest;fontSize=11;" parent="KC17zQEP-fs8KMPw8967-350" vertex="1">
          <mxGeometry y="440" width="875" height="20" as="geometry" />
        </mxCell>
        <mxCell id="KC17zQEP-fs8KMPw8967-371" value="+getTargetAccount() : int" style="text;strokeColor=none;fillColor=none;align=left;verticalAlign=top;spacingLeft=4;spacingRight=4;overflow=hidden;rotatable=0;points=[[0,0.5],[1,0.5]];portConstraint=eastwest;fontSize=11;" parent="KC17zQEP-fs8KMPw8967-350" vertex="1">
          <mxGeometry y="460" width="875" height="20" as="geometry" />
        </mxCell>
        <mxCell id="KC17zQEP-fs8KMPw8967-372" value="+getTag() : int" style="text;strokeColor=none;fillColor=none;align=left;verticalAlign=top;spacingLeft=4;spacingRight=4;overflow=hidden;rotatable=0;points=[[0,0.5],[1,0.5]];portConstraint=eastwest;fontSize=11;" parent="KC17zQEP-fs8KMPw8967-350" vertex="1">
          <mxGeometry y="480" width="875" height="20" as="geometry" />
        </mxCell>
        <mxCell id="KC17zQEP-fs8KMPw8967-373" value="+getSubTag() : int" style="text;strokeColor=none;fillColor=none;align=left;verticalAlign=top;spacingLeft=4;spacingRight=4;overflow=hidden;rotatable=0;points=[[0,0.5],[1,0.5]];portConstraint=eastwest;fontSize=11;" parent="KC17zQEP-fs8KMPw8967-350" vertex="1">
          <mxGeometry y="500" width="875" height="20" as="geometry" />
        </mxCell>
        <mxCell id="KC17zQEP-fs8KMPw8967-374" value="+getAction() : int" style="text;strokeColor=none;fillColor=none;align=left;verticalAlign=top;spacingLeft=4;spacingRight=4;overflow=hidden;rotatable=0;points=[[0,0.5],[1,0.5]];portConstraint=eastwest;fontSize=11;" parent="KC17zQEP-fs8KMPw8967-350" vertex="1">
          <mxGeometry y="520" width="875" height="20" as="geometry" />
        </mxCell>
        <mxCell id="KC17zQEP-fs8KMPw8967-375" value="+getFormattedTransactionDate() : String" style="text;strokeColor=none;fillColor=none;align=left;verticalAlign=top;spacingLeft=4;spacingRight=4;overflow=hidden;rotatable=0;points=[[0,0.5],[1,0.5]];portConstraint=eastwest;fontSize=11;" parent="KC17zQEP-fs8KMPw8967-350" vertex="1">
          <mxGeometry y="540" width="875" height="20" as="geometry" />
        </mxCell>
        <mxCell id="KC17zQEP-fs8KMPw8967-376" value="+getAmount() : double" style="text;strokeColor=none;fillColor=none;align=left;verticalAlign=top;spacingLeft=4;spacingRight=4;overflow=hidden;rotatable=0;points=[[0,0.5],[1,0.5]];portConstraint=eastwest;fontSize=11;" parent="KC17zQEP-fs8KMPw8967-350" vertex="1">
          <mxGeometry y="560" width="875" height="26" as="geometry" />
        </mxCell>
        <mxCell id="KC17zQEP-fs8KMPw8967-377" value="&lt;&lt;enumeration&gt;&gt;TransferRemark" style="swimlane;fontStyle=1;align=center;verticalAlign=top;childLayout=stackLayout;horizontal=1;startSize=42.90909090909091;horizontalStack=0;resizeParent=1;resizeParentMax=0;resizeLast=0;collapsible=0;marginBottom=0;fontSize=11;" parent="1" vertex="1">
          <mxGeometry x="720" y="1230" width="530" height="398.9990909090909" as="geometry" />
        </mxCell>
        <mxCell id="KC17zQEP-fs8KMPw8967-378" value="Daily_Life" style="text;strokeColor=none;fillColor=none;align=left;verticalAlign=top;spacingLeft=4;spacingRight=4;overflow=hidden;rotatable=0;points=[[0,0.5],[1,0.5]];portConstraint=eastwest;fontSize=11;" parent="KC17zQEP-fs8KMPw8967-377" vertex="1">
          <mxGeometry y="42.90909090909091" width="530" height="27.09" as="geometry" />
        </mxCell>
        <mxCell id="KC17zQEP-fs8KMPw8967-379" value="Business_Transactions" style="text;strokeColor=none;fillColor=none;align=left;verticalAlign=top;spacingLeft=4;spacingRight=4;overflow=hidden;rotatable=0;points=[[0,0.5],[1,0.5]];portConstraint=eastwest;fontSize=11;" parent="KC17zQEP-fs8KMPw8967-377" vertex="1">
          <mxGeometry y="69.99909090909091" width="530" height="20" as="geometry" />
        </mxCell>
        <mxCell id="KC17zQEP-fs8KMPw8967-380" value="Other_Common_Uses" style="text;strokeColor=none;fillColor=none;align=left;verticalAlign=top;spacingLeft=4;spacingRight=4;overflow=hidden;rotatable=0;points=[[0,0.5],[1,0.5]];portConstraint=eastwest;fontSize=11;" parent="KC17zQEP-fs8KMPw8967-377" vertex="1">
          <mxGeometry y="89.99909090909091" width="530" height="20" as="geometry" />
        </mxCell>
        <mxCell id="KC17zQEP-fs8KMPw8967-381" value="Shopping_And_Consumption" style="text;strokeColor=none;fillColor=none;align=left;verticalAlign=top;spacingLeft=4;spacingRight=4;overflow=hidden;rotatable=0;points=[[0,0.5],[1,0.5]];portConstraint=eastwest;fontSize=11;" parent="KC17zQEP-fs8KMPw8967-377" vertex="1">
          <mxGeometry y="109.99909090909091" width="530" height="20" as="geometry" />
        </mxCell>
        <mxCell id="KC17zQEP-fs8KMPw8967-382" value="Social_Relationships" style="text;strokeColor=none;fillColor=none;align=left;verticalAlign=top;spacingLeft=4;spacingRight=4;overflow=hidden;rotatable=0;points=[[0,0.5],[1,0.5]];portConstraint=eastwest;fontSize=11;" parent="KC17zQEP-fs8KMPw8967-377" vertex="1">
          <mxGeometry y="129.9990909090909" width="530" height="20" as="geometry" />
        </mxCell>
        <mxCell id="KC17zQEP-fs8KMPw8967-383" value="Investment_And_Financial_Management" style="text;strokeColor=none;fillColor=none;align=left;verticalAlign=top;spacingLeft=4;spacingRight=4;overflow=hidden;rotatable=0;points=[[0,0.5],[1,0.5]];portConstraint=eastwest;fontSize=11;" parent="KC17zQEP-fs8KMPw8967-377" vertex="1">
          <mxGeometry y="149.9990909090909" width="530" height="20" as="geometry" />
        </mxCell>
        <mxCell id="KC17zQEP-fs8KMPw8967-384" value="Education_And_Training" style="text;strokeColor=none;fillColor=none;align=left;verticalAlign=top;spacingLeft=4;spacingRight=4;overflow=hidden;rotatable=0;points=[[0,0.5],[1,0.5]];portConstraint=eastwest;fontSize=11;" parent="KC17zQEP-fs8KMPw8967-377" vertex="1">
          <mxGeometry y="169.9990909090909" width="530" height="20" as="geometry" />
        </mxCell>
        <mxCell id="KC17zQEP-fs8KMPw8967-385" value="Healthcare" style="text;strokeColor=none;fillColor=none;align=left;verticalAlign=top;spacingLeft=4;spacingRight=4;overflow=hidden;rotatable=0;points=[[0,0.5],[1,0.5]];portConstraint=eastwest;fontSize=11;" parent="KC17zQEP-fs8KMPw8967-377" vertex="1">
          <mxGeometry y="189.9990909090909" width="530" height="20" as="geometry" />
        </mxCell>
        <mxCell id="KC17zQEP-fs8KMPw8967-386" value="Entertainment_And_Leisure" style="text;strokeColor=none;fillColor=none;align=left;verticalAlign=top;spacingLeft=4;spacingRight=4;overflow=hidden;rotatable=0;points=[[0,0.5],[1,0.5]];portConstraint=eastwest;fontSize=11;" parent="KC17zQEP-fs8KMPw8967-377" vertex="1">
          <mxGeometry y="209.9990909090909" width="530" height="20" as="geometry" />
        </mxCell>
        <mxCell id="KC17zQEP-fs8KMPw8967-387" value="-optionOne: String" style="text;strokeColor=none;fillColor=none;align=left;verticalAlign=top;spacingLeft=4;spacingRight=4;overflow=hidden;rotatable=0;points=[[0,0.5],[1,0.5]];portConstraint=eastwest;fontSize=11;" parent="KC17zQEP-fs8KMPw8967-377" vertex="1">
          <mxGeometry y="229.9990909090909" width="530" height="20" as="geometry" />
        </mxCell>
        <mxCell id="KC17zQEP-fs8KMPw8967-388" value="-optionTwo: String" style="text;strokeColor=none;fillColor=none;align=left;verticalAlign=top;spacingLeft=4;spacingRight=4;overflow=hidden;rotatable=0;points=[[0,0.5],[1,0.5]];portConstraint=eastwest;fontSize=11;" parent="KC17zQEP-fs8KMPw8967-377" vertex="1">
          <mxGeometry y="249.9990909090909" width="530" height="20" as="geometry" />
        </mxCell>
        <mxCell id="KC17zQEP-fs8KMPw8967-389" value="-optionThree: String" style="text;strokeColor=none;fillColor=none;align=left;verticalAlign=top;spacingLeft=4;spacingRight=4;overflow=hidden;rotatable=0;points=[[0,0.5],[1,0.5]];portConstraint=eastwest;fontSize=11;" parent="KC17zQEP-fs8KMPw8967-377" vertex="1">
          <mxGeometry y="269.9990909090909" width="530" height="29" as="geometry" />
        </mxCell>
        <mxCell id="KC17zQEP-fs8KMPw8967-390" style="line;strokeWidth=1;fillColor=none;align=left;verticalAlign=middle;spacingTop=-1;spacingLeft=3;spacingRight=3;rotatable=0;labelPosition=right;points=[];portConstraint=eastwest;strokeColor=inherit;fontSize=11;" parent="KC17zQEP-fs8KMPw8967-377" vertex="1">
          <mxGeometry y="298.9990909090909" width="530" height="8" as="geometry" />
        </mxCell>
        <mxCell id="KC17zQEP-fs8KMPw8967-424" value="&lt;font&gt;&lt;span style=&quot;text-wrap-mode: nowrap;&quot;&gt;&amp;lt;&amp;lt;constructor&amp;gt;&amp;gt;&lt;/span&gt;TransferRemark (reasonOne:String, reasonTwo:String, reasonThree:String)&lt;/font&gt;" style="text;html=1;whiteSpace=wrap;strokeColor=none;fillColor=none;align=left;verticalAlign=middle;rounded=0;fontSize=11;" parent="KC17zQEP-fs8KMPw8967-377" vertex="1">
          <mxGeometry y="306.9990909090909" width="530" height="23" as="geometry" />
        </mxCell>
        <mxCell id="KC17zQEP-fs8KMPw8967-391" value="+transferRemarkFullOption() : void" style="text;strokeColor=none;fillColor=none;align=left;verticalAlign=top;spacingLeft=4;spacingRight=4;overflow=hidden;rotatable=0;points=[[0,0.5],[1,0.5]];portConstraint=eastwest;fontSize=11;" parent="KC17zQEP-fs8KMPw8967-377" vertex="1">
          <mxGeometry y="329.9990909090909" width="530" height="20" as="geometry" />
        </mxCell>
        <mxCell id="KC17zQEP-fs8KMPw8967-392" value="+transferRemarkOptionDetail(option: int) : void" style="text;strokeColor=none;fillColor=none;align=left;verticalAlign=top;spacingLeft=4;spacingRight=4;overflow=hidden;rotatable=0;points=[[0,0.5],[1,0.5]];portConstraint=eastwest;fontSize=11;" parent="KC17zQEP-fs8KMPw8967-377" vertex="1">
          <mxGeometry y="349.9990909090909" width="530" height="20" as="geometry" />
        </mxCell>
        <mxCell id="KC17zQEP-fs8KMPw8967-393" value="+displayRemarkSelection(title: String, remarkList: int[]) : void" style="text;strokeColor=none;fillColor=none;align=left;verticalAlign=top;spacingLeft=4;spacingRight=4;overflow=hidden;rotatable=0;points=[[0,0.5],[1,0.5]];portConstraint=eastwest;fontSize=11;" parent="KC17zQEP-fs8KMPw8967-377" vertex="1">
          <mxGeometry y="369.9990909090909" width="530" height="29" as="geometry" />
        </mxCell>
        <mxCell id="KC17zQEP-fs8KMPw8967-431" style="edgeStyle=orthogonalEdgeStyle;rounded=0;orthogonalLoop=1;jettySize=auto;html=1;exitX=0.828;exitY=0.002;exitDx=0;exitDy=0;exitPerimeter=0;endArrow=none;endFill=0;fontSize=11;" parent="1" source="KC17zQEP-fs8KMPw8967-326" edge="1">
          <mxGeometry relative="1" as="geometry">
            <mxPoint x="2050" y="700" as="targetPoint" />
            <Array as="points">
              <mxPoint x="1600" y="700" />
            </Array>
          </mxGeometry>
        </mxCell>
        <mxCell id="KC17zQEP-fs8KMPw8967-326" value="Keypad" style="swimlane;fontStyle=1;align=center;verticalAlign=top;childLayout=stackLayout;horizontal=1;startSize=32;horizontalStack=0;resizeParent=1;resizeParentMax=0;resizeLast=0;collapsible=0;marginBottom=0;fontSize=11;" parent="1" vertex="1">
          <mxGeometry x="1310" y="760" width="410" height="230" as="geometry" />
        </mxCell>
        <mxCell id="KC17zQEP-fs8KMPw8967-327" value="-input: Scanner" style="text;strokeColor=none;fillColor=none;align=left;verticalAlign=top;spacingLeft=4;spacingRight=4;overflow=hidden;rotatable=0;points=[[0,0.5],[1,0.5]];portConstraint=eastwest;fontSize=11;" parent="KC17zQEP-fs8KMPw8967-326" vertex="1">
          <mxGeometry y="32" width="410" height="32" as="geometry" />
        </mxCell>
        <mxCell id="KC17zQEP-fs8KMPw8967-328" style="line;strokeWidth=1;fillColor=none;align=left;verticalAlign=middle;spacingTop=-1;spacingLeft=3;spacingRight=3;rotatable=0;labelPosition=right;points=[];portConstraint=eastwest;strokeColor=inherit;fontSize=11;" parent="KC17zQEP-fs8KMPw8967-326" vertex="1">
          <mxGeometry y="64" width="410" height="8" as="geometry" />
        </mxCell>
        <mxCell id="KC17zQEP-fs8KMPw8967-329" value="&lt;&lt;constructor&gt;&gt;Keypad()" style="text;strokeColor=none;fillColor=none;align=left;verticalAlign=top;spacingLeft=4;spacingRight=4;overflow=hidden;rotatable=0;points=[[0,0.5],[1,0.5]];portConstraint=eastwest;fontSize=11;" parent="KC17zQEP-fs8KMPw8967-326" vertex="1">
          <mxGeometry y="72" width="410" height="18" as="geometry" />
        </mxCell>
        <mxCell id="KC17zQEP-fs8KMPw8967-330" value="+getInput() : int" style="text;strokeColor=none;fillColor=none;align=left;verticalAlign=top;spacingLeft=4;spacingRight=4;overflow=hidden;rotatable=0;points=[[0,0.5],[1,0.5]];portConstraint=eastwest;fontSize=11;" parent="KC17zQEP-fs8KMPw8967-326" vertex="1">
          <mxGeometry y="90" width="410" height="20" as="geometry" />
        </mxCell>
        <mxCell id="KC17zQEP-fs8KMPw8967-331" value="+getDoubleInput() : double" style="text;strokeColor=none;fillColor=none;align=left;verticalAlign=top;spacingLeft=4;spacingRight=4;overflow=hidden;rotatable=0;points=[[0,0.5],[1,0.5]];portConstraint=eastwest;fontSize=11;" parent="KC17zQEP-fs8KMPw8967-326" vertex="1">
          <mxGeometry y="110" width="410" height="20" as="geometry" />
        </mxCell>
        <mxCell id="KC17zQEP-fs8KMPw8967-332" value="+getSelection() : int" style="text;strokeColor=none;fillColor=none;align=left;verticalAlign=top;spacingLeft=4;spacingRight=4;overflow=hidden;rotatable=0;points=[[0,0.5],[1,0.5]];portConstraint=eastwest;fontSize=11;" parent="KC17zQEP-fs8KMPw8967-326" vertex="1">
          <mxGeometry y="130" width="410" height="20" as="geometry" />
        </mxCell>
        <mxCell id="KC17zQEP-fs8KMPw8967-333" value="+clearBuffer() : void" style="text;strokeColor=none;fillColor=none;align=left;verticalAlign=top;spacingLeft=4;spacingRight=4;overflow=hidden;rotatable=0;points=[[0,0.5],[1,0.5]];portConstraint=eastwest;fontSize=11;" parent="KC17zQEP-fs8KMPw8967-326" vertex="1">
          <mxGeometry y="150" width="410" height="20" as="geometry" />
        </mxCell>
        <mxCell id="KC17zQEP-fs8KMPw8967-334" value="+getReceiverAccountNumber(screen: Screen, &#xa;promptForInput: String, errorMessage: String) : int" style="text;strokeColor=none;fillColor=none;align=left;verticalAlign=top;spacingLeft=4;spacingRight=4;overflow=hidden;rotatable=0;points=[[0,0.5],[1,0.5]];portConstraint=eastwest;fontSize=11;" parent="KC17zQEP-fs8KMPw8967-326" vertex="1">
          <mxGeometry y="170" width="410" height="60" as="geometry" />
        </mxCell>
        <mxCell id="KC17zQEP-fs8KMPw8967-432" style="edgeStyle=orthogonalEdgeStyle;rounded=0;orthogonalLoop=1;jettySize=auto;html=1;endArrow=none;endFill=0;exitX=0.856;exitY=-0.001;exitDx=0;exitDy=0;exitPerimeter=0;fontSize=11;" parent="1" source="KC17zQEP-fs8KMPw8967-300" edge="1">
          <mxGeometry relative="1" as="geometry">
            <mxPoint x="2050" y="690" as="targetPoint" />
            <Array as="points">
              <mxPoint x="1159" y="690" />
            </Array>
          </mxGeometry>
        </mxCell>
        <mxCell id="KC17zQEP-fs8KMPw8967-441" style="edgeStyle=orthogonalEdgeStyle;rounded=0;orthogonalLoop=1;jettySize=auto;html=1;exitX=0.75;exitY=0;exitDx=0;exitDy=0;entryX=0.25;entryY=0;entryDx=0;entryDy=0;startArrow=diamondThin;startFill=0;endArrow=none;endFill=0;startSize=16;fontSize=11;" parent="1" source="KC17zQEP-fs8KMPw8967-300" target="KC17zQEP-fs8KMPw8967-326" edge="1">
          <mxGeometry relative="1" as="geometry">
            <Array as="points">
              <mxPoint x="1107" y="720" />
              <mxPoint x="1413" y="720" />
            </Array>
          </mxGeometry>
        </mxCell>
        <mxCell id="KC17zQEP-fs8KMPw8967-453" style="edgeStyle=orthogonalEdgeStyle;rounded=0;orthogonalLoop=1;jettySize=auto;html=1;entryX=0.5;entryY=0;entryDx=0;entryDy=0;startArrow=diamondThin;startFill=1;endArrow=none;endFill=0;startSize=16;fontSize=11;" parent="1" source="KC17zQEP-fs8KMPw8967-300" target="KC17zQEP-fs8KMPw8967-377" edge="1">
          <mxGeometry relative="1" as="geometry" />
        </mxCell>
        <mxCell id="KC17zQEP-fs8KMPw8967-300" value="Transfer" style="swimlane;fontStyle=1;align=center;verticalAlign=top;childLayout=stackLayout;horizontal=1;startSize=29.333333333333332;horizontalStack=0;resizeParent=1;resizeParentMax=0;resizeLast=0;collapsible=0;marginBottom=0;fontSize=11;" parent="1" vertex="1">
          <mxGeometry x="740" y="760" width="490" height="400.00333333333333" as="geometry" />
        </mxCell>
        <mxCell id="KC17zQEP-fs8KMPw8967-301" value="-amount: double" style="text;strokeColor=none;fillColor=none;align=left;verticalAlign=top;spacingLeft=4;spacingRight=4;overflow=hidden;rotatable=0;points=[[0,0.5],[1,0.5]];portConstraint=eastwest;fontSize=11;" parent="KC17zQEP-fs8KMPw8967-300" vertex="1">
          <mxGeometry y="29.333333333333332" width="490" height="29" as="geometry" />
        </mxCell>
        <mxCell id="KC17zQEP-fs8KMPw8967-302" value="-keypad: Keypad" style="text;strokeColor=none;fillColor=none;align=left;verticalAlign=top;spacingLeft=4;spacingRight=4;overflow=hidden;rotatable=0;points=[[0,0.5],[1,0.5]];portConstraint=eastwest;fontSize=11;" parent="KC17zQEP-fs8KMPw8967-300" vertex="1">
          <mxGeometry y="58.33333333333333" width="490" height="29" as="geometry" />
        </mxCell>
        <mxCell id="KC17zQEP-fs8KMPw8967-303" value="-receiverAccount: int" style="text;strokeColor=none;fillColor=none;align=left;verticalAlign=top;spacingLeft=4;spacingRight=4;overflow=hidden;rotatable=0;points=[[0,0.5],[1,0.5]];portConstraint=eastwest;fontSize=11;" parent="KC17zQEP-fs8KMPw8967-300" vertex="1">
          <mxGeometry y="87.33333333333333" width="490" height="29" as="geometry" />
        </mxCell>
        <mxCell id="KC17zQEP-fs8KMPw8967-304" value="-CANCELED: int" style="text;strokeColor=none;fillColor=none;align=left;verticalAlign=top;spacingLeft=4;spacingRight=4;overflow=hidden;rotatable=0;points=[[0,0.5],[1,0.5]];portConstraint=eastwest;fontSize=11;" parent="KC17zQEP-fs8KMPw8967-300" vertex="1">
          <mxGeometry y="116.33333333333333" width="490" height="29" as="geometry" />
        </mxCell>
        <mxCell id="KC17zQEP-fs8KMPw8967-305" style="line;strokeWidth=1;fillColor=none;align=left;verticalAlign=middle;spacingTop=-1;spacingLeft=3;spacingRight=3;rotatable=0;labelPosition=right;points=[];portConstraint=eastwest;strokeColor=inherit;fontSize=11;" parent="KC17zQEP-fs8KMPw8967-300" vertex="1">
          <mxGeometry y="145.33333333333331" width="490" height="8" as="geometry" />
        </mxCell>
        <mxCell id="KC17zQEP-fs8KMPw8967-306" value="&lt;&lt;constructor&gt;&gt;Transfer(userAccountNumber: int, &#xa;atmScreen: Screen, atmBankDatabase: BankDatabase, &#xa;atmKeypad: Keypad, atmCashDispenser: CashDispenser)" style="text;strokeColor=none;fillColor=none;align=left;verticalAlign=top;spacingLeft=4;spacingRight=4;overflow=hidden;rotatable=0;points=[[0,0.5],[1,0.5]];portConstraint=eastwest;fontSize=11;" parent="KC17zQEP-fs8KMPw8967-300" vertex="1">
          <mxGeometry y="153.33333333333331" width="490" height="66.67" as="geometry" />
        </mxCell>
        <mxCell id="KC17zQEP-fs8KMPw8967-307" value="+execute() : void" style="text;strokeColor=none;fillColor=none;align=left;verticalAlign=top;spacingLeft=4;spacingRight=4;overflow=hidden;rotatable=0;points=[[0,0.5],[1,0.5]];portConstraint=eastwest;fontSize=11;" parent="KC17zQEP-fs8KMPw8967-300" vertex="1">
          <mxGeometry y="220.00333333333333" width="490" height="20" as="geometry" />
        </mxCell>
        <mxCell id="KC17zQEP-fs8KMPw8967-308" value="+isSameAccount(aimTransferAccount: int) : boolean" style="text;strokeColor=none;fillColor=none;align=left;verticalAlign=top;spacingLeft=4;spacingRight=4;overflow=hidden;rotatable=0;points=[[0,0.5],[1,0.5]];portConstraint=eastwest;fontSize=11;" parent="KC17zQEP-fs8KMPw8967-300" vertex="1">
          <mxGeometry y="240.00333333333333" width="490" height="20" as="geometry" />
        </mxCell>
        <mxCell id="KC17zQEP-fs8KMPw8967-309" value="-varifyAmount(screen: Screen) : double" style="text;strokeColor=none;fillColor=none;align=left;verticalAlign=top;spacingLeft=4;spacingRight=4;overflow=hidden;rotatable=0;points=[[0,0.5],[1,0.5]];portConstraint=eastwest;fontSize=11;" parent="KC17zQEP-fs8KMPw8967-300" vertex="1">
          <mxGeometry y="260.00333333333333" width="490" height="20" as="geometry" />
        </mxCell>
        <mxCell id="KC17zQEP-fs8KMPw8967-310" value="-isTwoDecimalOnly(predictAmount: double) : boolean" style="text;strokeColor=none;fillColor=none;align=left;verticalAlign=top;spacingLeft=4;spacingRight=4;overflow=hidden;rotatable=0;points=[[0,0.5],[1,0.5]];portConstraint=eastwest;fontSize=11;" parent="KC17zQEP-fs8KMPw8967-300" vertex="1">
          <mxGeometry y="280.00333333333333" width="490" height="20" as="geometry" />
        </mxCell>
        <mxCell id="KC17zQEP-fs8KMPw8967-311" value="+getReceiverAccount() : int" style="text;strokeColor=none;fillColor=none;align=left;verticalAlign=top;spacingLeft=4;spacingRight=4;overflow=hidden;rotatable=0;points=[[0,0.5],[1,0.5]];portConstraint=eastwest;fontSize=11;" parent="KC17zQEP-fs8KMPw8967-300" vertex="1">
          <mxGeometry y="300.00333333333333" width="490" height="29" as="geometry" />
        </mxCell>
        <mxCell id="KC17zQEP-fs8KMPw8967-312" value="-displayMenu(line1: String, line2: String, line3: String, &#xa;line4: String, ErrorMessage: String, innerMessage1: String, &#xa;innerMessage2: String) : int" style="text;strokeColor=none;fillColor=none;align=left;verticalAlign=top;spacingLeft=4;spacingRight=4;overflow=hidden;rotatable=0;points=[[0,0.5],[1,0.5]];portConstraint=eastwest;fontSize=11;" parent="KC17zQEP-fs8KMPw8967-300" vertex="1">
          <mxGeometry y="329.00333333333333" width="490" height="71" as="geometry" />
        </mxCell>
        <mxCell id="KC17zQEP-fs8KMPw8967-313" value="Screen" style="swimlane;fontStyle=1;align=center;verticalAlign=top;childLayout=stackLayout;horizontal=1;startSize=28.64;horizontalStack=0;resizeParent=1;resizeParentMax=0;resizeLast=0;collapsible=0;marginBottom=0;fontSize=11;" parent="1" vertex="1">
          <mxGeometry x="1777" y="760.0000000000001" width="550" height="309" as="geometry" />
        </mxCell>
        <mxCell id="KC17zQEP-fs8KMPw8967-314" style="line;strokeWidth=1;fillColor=none;align=left;verticalAlign=middle;spacingTop=-1;spacingLeft=3;spacingRight=3;rotatable=0;labelPosition=right;points=[];portConstraint=eastwest;strokeColor=inherit;fontSize=11;" parent="KC17zQEP-fs8KMPw8967-313" vertex="1">
          <mxGeometry y="28.64" width="550" height="8" as="geometry" />
        </mxCell>
        <mxCell id="KC17zQEP-fs8KMPw8967-315" value="+displayMessage(message: String) : void" style="text;strokeColor=none;fillColor=none;align=left;verticalAlign=top;spacingLeft=4;spacingRight=4;overflow=hidden;rotatable=0;points=[[0,0.5],[1,0.5]];portConstraint=eastwest;fontSize=11;" parent="KC17zQEP-fs8KMPw8967-313" vertex="1">
          <mxGeometry y="36.64" width="550" height="23.36" as="geometry" />
        </mxCell>
        <mxCell id="KC17zQEP-fs8KMPw8967-316" value="+displayMessageLine(message: String) : void" style="text;strokeColor=none;fillColor=none;align=left;verticalAlign=top;spacingLeft=4;spacingRight=4;overflow=hidden;rotatable=0;points=[[0,0.5],[1,0.5]];portConstraint=eastwest;fontSize=11;" parent="KC17zQEP-fs8KMPw8967-313" vertex="1">
          <mxGeometry y="60" width="550" height="20" as="geometry" />
        </mxCell>
        <mxCell id="KC17zQEP-fs8KMPw8967-317" value="+displayDollarAmount(amount: double) : void" style="text;strokeColor=none;fillColor=none;align=left;verticalAlign=top;spacingLeft=4;spacingRight=4;overflow=hidden;rotatable=0;points=[[0,0.5],[1,0.5]];portConstraint=eastwest;fontSize=11;" parent="KC17zQEP-fs8KMPw8967-313" vertex="1">
          <mxGeometry y="80" width="550" height="20" as="geometry" />
        </mxCell>
        <mxCell id="KC17zQEP-fs8KMPw8967-318" value="+amountsDisplay(account: int, amounts: double) : String" style="text;strokeColor=none;fillColor=none;align=left;verticalAlign=top;spacingLeft=4;spacingRight=4;overflow=hidden;rotatable=0;points=[[0,0.5],[1,0.5]];portConstraint=eastwest;fontSize=11;" parent="KC17zQEP-fs8KMPw8967-313" vertex="1">
          <mxGeometry y="100" width="550" height="20" as="geometry" />
        </mxCell>
        <mxCell id="KC17zQEP-fs8KMPw8967-319" value="+displayWithdrawMessageLine(amount: int) : void" style="text;strokeColor=none;fillColor=none;align=left;verticalAlign=top;spacingLeft=4;spacingRight=4;overflow=hidden;rotatable=0;points=[[0,0.5],[1,0.5]];portConstraint=eastwest;fontSize=11;" parent="KC17zQEP-fs8KMPw8967-313" vertex="1">
          <mxGeometry y="120" width="550" height="20" as="geometry" />
        </mxCell>
        <mxCell id="KC17zQEP-fs8KMPw8967-320" value="+displayCurrentRemaining(amount: double) : void" style="text;strokeColor=none;fillColor=none;align=left;verticalAlign=top;spacingLeft=4;spacingRight=4;overflow=hidden;rotatable=0;points=[[0,0.5],[1,0.5]];portConstraint=eastwest;fontSize=11;" parent="KC17zQEP-fs8KMPw8967-313" vertex="1">
          <mxGeometry y="140" width="550" height="20" as="geometry" />
        </mxCell>
        <mxCell id="KC17zQEP-fs8KMPw8967-321" value="+displayTransferMessageLine(amount: double, receiver: int) : void" style="text;strokeColor=none;fillColor=none;align=left;verticalAlign=top;spacingLeft=4;spacingRight=4;overflow=hidden;rotatable=0;points=[[0,0.5],[1,0.5]];portConstraint=eastwest;fontSize=11;" parent="KC17zQEP-fs8KMPw8967-313" vertex="1">
          <mxGeometry y="160" width="550" height="20" as="geometry" />
        </mxCell>
        <mxCell id="KC17zQEP-fs8KMPw8967-322" value="+displayLimitAccountNotification(accountType: String, &#xa;amount: double, action: String) : void" style="text;strokeColor=none;fillColor=none;align=left;verticalAlign=top;spacingLeft=4;spacingRight=4;overflow=hidden;rotatable=0;points=[[0,0.5],[1,0.5]];portConstraint=eastwest;fontSize=11;" parent="KC17zQEP-fs8KMPw8967-313" vertex="1">
          <mxGeometry y="180" width="550" height="40" as="geometry" />
        </mxCell>
        <mxCell id="KC17zQEP-fs8KMPw8967-323" value="+displayWithdrawalTypeOfAmount(numberOfOneHundred: int, &#xa;numberOfFiveHundred: int, numberOfOneThousand: int) : void" style="text;strokeColor=none;fillColor=none;align=left;verticalAlign=top;spacingLeft=4;spacingRight=4;overflow=hidden;rotatable=0;points=[[0,0.5],[1,0.5]];portConstraint=eastwest;fontSize=11;" parent="KC17zQEP-fs8KMPw8967-313" vertex="1">
          <mxGeometry y="220" width="550" height="40" as="geometry" />
        </mxCell>
        <mxCell id="KC17zQEP-fs8KMPw8967-324" value="+displaySymbolicLine(symbol: char, length: int) : void" style="text;strokeColor=none;fillColor=none;align=left;verticalAlign=top;spacingLeft=4;spacingRight=4;overflow=hidden;rotatable=0;points=[[0,0.5],[1,0.5]];portConstraint=eastwest;fontSize=11;" parent="KC17zQEP-fs8KMPw8967-313" vertex="1">
          <mxGeometry y="260" width="550" height="20" as="geometry" />
        </mxCell>
        <mxCell id="KC17zQEP-fs8KMPw8967-325" value="+currentDay() : String" style="text;strokeColor=none;fillColor=none;align=left;verticalAlign=top;spacingLeft=4;spacingRight=4;overflow=hidden;rotatable=0;points=[[0,0.5],[1,0.5]];portConstraint=eastwest;fontSize=11;" parent="KC17zQEP-fs8KMPw8967-313" vertex="1">
          <mxGeometry y="280" width="550" height="29" as="geometry" />
        </mxCell>
        <mxCell id="KC17zQEP-fs8KMPw8967-436" style="edgeStyle=orthogonalEdgeStyle;rounded=0;orthogonalLoop=1;jettySize=auto;html=1;startArrow=diamondThin;startFill=1;endArrow=none;endFill=0;startSize=16;fontSize=11;" parent="1" source="KC17zQEP-fs8KMPw8967-210" edge="1">
          <mxGeometry relative="1" as="geometry">
            <mxPoint x="1880" y="471" as="targetPoint" />
          </mxGeometry>
        </mxCell>
        <mxCell id="KC17zQEP-fs8KMPw8967-437" style="edgeStyle=orthogonalEdgeStyle;rounded=0;orthogonalLoop=1;jettySize=auto;html=1;entryX=0.49;entryY=0.99;entryDx=0;entryDy=0;entryPerimeter=0;endArrow=block;endFill=0;endSize=16;fontSize=11;" parent="1" source="KC17zQEP-fs8KMPw8967-290" target="KC17zQEP-fs8KMPw8967-285" edge="1">
          <mxGeometry relative="1" as="geometry" />
        </mxCell>
        <mxCell id="KC17zQEP-fs8KMPw8967-440" style="edgeStyle=orthogonalEdgeStyle;rounded=0;orthogonalLoop=1;jettySize=auto;html=1;entryX=0.101;entryY=-0.006;entryDx=0;entryDy=0;entryPerimeter=0;exitX=0.75;exitY=0;exitDx=0;exitDy=0;startArrow=diamondThin;startFill=0;endArrow=none;endFill=0;startSize=16;fontSize=11;" parent="1" source="KC17zQEP-fs8KMPw8967-290" target="KC17zQEP-fs8KMPw8967-326" edge="1">
          <mxGeometry relative="1" as="geometry">
            <Array as="points">
              <mxPoint x="547" y="740" />
              <mxPoint x="1351" y="740" />
            </Array>
          </mxGeometry>
        </mxCell>
        <mxCell id="KC17zQEP-fs8KMPw8967-443" style="edgeStyle=orthogonalEdgeStyle;rounded=0;orthogonalLoop=1;jettySize=auto;html=1;exitX=0.75;exitY=0;exitDx=0;exitDy=0;entryX=0.195;entryY=1.023;entryDx=0;entryDy=0;entryPerimeter=0;startArrow=diamondThin;startFill=0;endArrow=none;endFill=0;startSize=16;fontSize=11;" parent="1" source="KC17zQEP-fs8KMPw8967-275" target="KC17zQEP-fs8KMPw8967-245" edge="1">
          <mxGeometry relative="1" as="geometry" />
        </mxCell>
        <mxCell id="KC17zQEP-fs8KMPw8967-445" style="edgeStyle=orthogonalEdgeStyle;rounded=0;orthogonalLoop=1;jettySize=auto;html=1;entryX=0.972;entryY=1.046;entryDx=0;entryDy=0;entryPerimeter=0;endArrow=block;endFill=0;endSize=16;fontSize=11;" parent="1" source="KC17zQEP-fs8KMPw8967-272" target="KC17zQEP-fs8KMPw8967-260" edge="1">
          <mxGeometry relative="1" as="geometry">
            <Array as="points">
              <mxPoint x="1830" y="226" />
            </Array>
          </mxGeometry>
        </mxCell>
        <mxCell id="KC17zQEP-fs8KMPw8967-447" style="edgeStyle=orthogonalEdgeStyle;rounded=0;orthogonalLoop=1;jettySize=auto;html=1;exitX=1;exitY=0.5;exitDx=0;exitDy=0;entryX=-0.001;entryY=0.654;entryDx=0;entryDy=0;entryPerimeter=0;startArrow=diamondThin;startFill=1;startSize=16;endArrow=none;endFill=0;fontSize=11;" parent="1" source="KC17zQEP-fs8KMPw8967-232" target="KC17zQEP-fs8KMPw8967-265" edge="1">
          <mxGeometry relative="1" as="geometry">
            <mxPoint x="1180" y="-37" as="targetPoint" />
          </mxGeometry>
        </mxCell>
        <mxCell id="KC17zQEP-fs8KMPw8967-448" style="edgeStyle=orthogonalEdgeStyle;rounded=0;orthogonalLoop=1;jettySize=auto;html=1;entryX=0;entryY=0.634;entryDx=0;entryDy=0;entryPerimeter=0;startArrow=diamondThin;startFill=1;startSize=16;endArrow=none;endFill=0;fontSize=11;" parent="1" source="KC17zQEP-fs8KMPw8967-243" target="KC17zQEP-fs8KMPw8967-270" edge="1">
          <mxGeometry relative="1" as="geometry" />
        </mxCell>
        <mxCell id="KC17zQEP-fs8KMPw8967-450" style="edgeStyle=orthogonalEdgeStyle;rounded=0;orthogonalLoop=1;jettySize=auto;html=1;exitX=1;exitY=0.5;exitDx=0;exitDy=0;entryX=0.078;entryY=0;entryDx=0;entryDy=0;entryPerimeter=0;startArrow=diamondThin;startFill=1;endArrow=none;endFill=0;startSize=16;fontSize=11;" parent="1" source="KC17zQEP-fs8KMPw8967-283" target="KC17zQEP-fs8KMPw8967-313" edge="1">
          <mxGeometry relative="1" as="geometry" />
        </mxCell>
        <mxCell id="KC17zQEP-fs8KMPw8967-455" style="edgeStyle=orthogonalEdgeStyle;rounded=0;orthogonalLoop=1;jettySize=auto;html=1;exitX=0.25;exitY=0;exitDx=0;exitDy=0;entryX=0.902;entryY=1.085;entryDx=0;entryDy=0;entryPerimeter=0;startArrow=diamondThin;startFill=1;endArrow=none;endFill=0;startSize=16;fontSize=11;" parent="1" source="KC17zQEP-fs8KMPw8967-275" target="KC17zQEP-fs8KMPw8967-376" edge="1">
          <mxGeometry relative="1" as="geometry">
            <Array as="points">
              <mxPoint x="310" y="228" />
              <mxPoint x="309" y="138" />
            </Array>
          </mxGeometry>
        </mxCell>
        <mxCell id="KC17zQEP-fs8KMPw8967-456" value="&lt;font&gt;1&lt;/font&gt;" style="text;html=1;whiteSpace=wrap;strokeColor=none;fillColor=none;align=center;verticalAlign=middle;rounded=0;fontSize=11;" parent="1" vertex="1">
          <mxGeometry x="2038" y="578" width="60" height="30" as="geometry" />
        </mxCell>
        <mxCell id="KC17zQEP-fs8KMPw8967-457" value="&lt;font&gt;1&lt;/font&gt;" style="text;html=1;whiteSpace=wrap;strokeColor=none;fillColor=none;align=center;verticalAlign=middle;rounded=0;fontSize=11;" parent="1" vertex="1">
          <mxGeometry x="920" y="1160" width="60" height="30" as="geometry" />
        </mxCell>
        <mxCell id="KC17zQEP-fs8KMPw8967-458" value="&lt;font&gt;1&lt;/font&gt;" style="text;html=1;whiteSpace=wrap;strokeColor=none;fillColor=none;align=center;verticalAlign=middle;rounded=0;fontSize=11;" parent="1" vertex="1">
          <mxGeometry x="1000" y="1200" width="60" height="30" as="geometry" />
        </mxCell>
        <mxCell id="KC17zQEP-fs8KMPw8967-459" value="&lt;font&gt;1&lt;/font&gt;" style="text;html=1;whiteSpace=wrap;strokeColor=none;fillColor=none;align=center;verticalAlign=middle;rounded=0;fontSize=11;" parent="1" vertex="1">
          <mxGeometry x="420" y="1429" width="60" height="30" as="geometry" />
        </mxCell>
        <mxCell id="KC17zQEP-fs8KMPw8967-460" value="&lt;font&gt;1&lt;/font&gt;" style="text;html=1;whiteSpace=wrap;strokeColor=none;fillColor=none;align=center;verticalAlign=middle;rounded=0;fontSize=11;" parent="1" vertex="1">
          <mxGeometry x="360" y="1029" width="60" height="30" as="geometry" />
        </mxCell>
        <mxCell id="KC17zQEP-fs8KMPw8967-461" value="&lt;font&gt;1&lt;/font&gt;" style="text;html=1;whiteSpace=wrap;strokeColor=none;fillColor=none;align=center;verticalAlign=middle;rounded=0;fontSize=11;" parent="1" vertex="1">
          <mxGeometry x="420" y="1080" width="60" height="30" as="geometry" />
        </mxCell>
        <mxCell id="KC17zQEP-fs8KMPw8967-462" value="&lt;font&gt;1&lt;/font&gt;" style="text;html=1;whiteSpace=wrap;strokeColor=none;fillColor=none;align=center;verticalAlign=middle;rounded=0;fontSize=11;" parent="1" vertex="1">
          <mxGeometry x="60" y="730" width="60" height="30" as="geometry" />
        </mxCell>
        <mxCell id="KC17zQEP-fs8KMPw8967-463" value="&lt;font&gt;1&lt;/font&gt;" style="text;html=1;whiteSpace=wrap;strokeColor=none;fillColor=none;align=center;verticalAlign=middle;rounded=0;fontSize=11;" parent="1" vertex="1">
          <mxGeometry x="540" y="740" width="60" height="30" as="geometry" />
        </mxCell>
        <mxCell id="KC17zQEP-fs8KMPw8967-464" value="&lt;font&gt;1&lt;/font&gt;" style="text;html=1;whiteSpace=wrap;strokeColor=none;fillColor=none;align=center;verticalAlign=middle;rounded=0;fontSize=11;" parent="1" vertex="1">
          <mxGeometry x="610" y="740" width="60" height="30" as="geometry" />
        </mxCell>
        <mxCell id="KC17zQEP-fs8KMPw8967-466" value="&lt;font&gt;1&lt;/font&gt;" style="text;html=1;whiteSpace=wrap;strokeColor=none;fillColor=none;align=center;verticalAlign=middle;rounded=0;fontSize=11;" parent="1" vertex="1">
          <mxGeometry x="1350" y="740" width="60" height="30" as="geometry" />
        </mxCell>
        <mxCell id="KC17zQEP-fs8KMPw8967-467" value="&lt;font&gt;1&lt;/font&gt;" style="text;html=1;whiteSpace=wrap;strokeColor=none;fillColor=none;align=center;verticalAlign=middle;rounded=0;fontSize=11;" parent="1" vertex="1">
          <mxGeometry x="1410" y="740" width="60" height="30" as="geometry" />
        </mxCell>
        <mxCell id="KC17zQEP-fs8KMPw8967-468" value="&lt;font&gt;1&lt;/font&gt;" style="text;html=1;whiteSpace=wrap;strokeColor=none;fillColor=none;align=center;verticalAlign=middle;rounded=0;fontSize=11;" parent="1" vertex="1">
          <mxGeometry x="1820" y="730" width="60" height="30" as="geometry" />
        </mxCell>
        <mxCell id="KC17zQEP-fs8KMPw8967-469" value="&lt;font&gt;1&lt;/font&gt;" style="text;html=1;whiteSpace=wrap;strokeColor=none;fillColor=none;align=center;verticalAlign=middle;rounded=0;fontSize=11;" parent="1" vertex="1">
          <mxGeometry x="2038" y="730" width="60" height="30" as="geometry" />
        </mxCell>
        <mxCell id="KC17zQEP-fs8KMPw8967-470" value="&lt;font&gt;1&lt;/font&gt;" style="text;html=1;whiteSpace=wrap;strokeColor=none;fillColor=none;align=center;verticalAlign=middle;rounded=0;fontSize=11;" parent="1" vertex="1">
          <mxGeometry x="1700" y="440" width="60" height="30" as="geometry" />
        </mxCell>
        <mxCell id="KC17zQEP-fs8KMPw8967-471" value="&lt;font&gt;1&lt;/font&gt;" style="text;html=1;whiteSpace=wrap;strokeColor=none;fillColor=none;align=center;verticalAlign=middle;rounded=0;fontSize=11;" parent="1" vertex="1">
          <mxGeometry x="1830" y="470" width="60" height="30" as="geometry" />
        </mxCell>
        <mxCell id="KC17zQEP-fs8KMPw8967-472" value="&lt;font&gt;1&lt;/font&gt;" style="text;html=1;whiteSpace=wrap;strokeColor=none;fillColor=none;align=center;verticalAlign=middle;rounded=0;fontSize=11;" parent="1" vertex="1">
          <mxGeometry x="660" y="510" width="60" height="30" as="geometry" />
        </mxCell>
        <mxCell id="KC17zQEP-fs8KMPw8967-473" value="&lt;font&gt;1&lt;/font&gt;" style="text;html=1;whiteSpace=wrap;strokeColor=none;fillColor=none;align=center;verticalAlign=middle;rounded=0;fontSize=11;" parent="1" vertex="1">
          <mxGeometry x="500" y="239" width="60" height="30" as="geometry" />
        </mxCell>
        <mxCell id="KC17zQEP-fs8KMPw8967-474" value="&lt;font&gt;1&lt;/font&gt;" style="text;html=1;whiteSpace=wrap;strokeColor=none;fillColor=none;align=center;verticalAlign=middle;rounded=0;fontSize=11;" parent="1" vertex="1">
          <mxGeometry x="550" y="291.1" width="60" height="30" as="geometry" />
        </mxCell>
        <mxCell id="KC17zQEP-fs8KMPw8967-475" value="&lt;font&gt;1&lt;/font&gt;" style="text;html=1;whiteSpace=wrap;strokeColor=none;fillColor=none;align=center;verticalAlign=middle;rounded=0;fontSize=11;" parent="1" vertex="1">
          <mxGeometry x="240" y="140" width="60" height="30" as="geometry" />
        </mxCell>
        <mxCell id="KC17zQEP-fs8KMPw8967-476" value="&lt;font&gt;1&lt;/font&gt;" style="text;html=1;whiteSpace=wrap;strokeColor=none;fillColor=none;align=center;verticalAlign=middle;rounded=0;fontSize=11;" parent="1" vertex="1">
          <mxGeometry x="320" y="291.1" width="60" height="30" as="geometry" />
        </mxCell>
        <mxCell id="KC17zQEP-fs8KMPw8967-477" value="&lt;font&gt;1&lt;/font&gt;" style="text;html=1;whiteSpace=wrap;strokeColor=none;fillColor=none;align=center;verticalAlign=middle;rounded=0;fontSize=11;" parent="1" vertex="1">
          <mxGeometry x="840" y="-110" width="60" height="30" as="geometry" />
        </mxCell>
        <mxCell id="KC17zQEP-fs8KMPw8967-478" value="&lt;font&gt;1..*&lt;/font&gt;" style="text;html=1;whiteSpace=wrap;strokeColor=none;fillColor=none;align=center;verticalAlign=middle;rounded=0;fontSize=11;" parent="1" vertex="1">
          <mxGeometry x="1060" y="-250" width="60" height="30" as="geometry" />
        </mxCell>
        <mxCell id="KC17zQEP-fs8KMPw8967-479" value="&lt;font&gt;1&lt;/font&gt;" style="text;html=1;whiteSpace=wrap;strokeColor=none;fillColor=none;align=center;verticalAlign=middle;rounded=0;fontSize=11;" parent="1" vertex="1">
          <mxGeometry x="1040" y="-70" width="60" height="30" as="geometry" />
        </mxCell>
        <mxCell id="KC17zQEP-fs8KMPw8967-480" value="&lt;font&gt;1..*&lt;/font&gt;" style="text;html=1;whiteSpace=wrap;strokeColor=none;fillColor=none;align=center;verticalAlign=middle;rounded=0;fontSize=11;" parent="1" vertex="1">
          <mxGeometry x="1130" y="-30" width="60" height="30" as="geometry" />
        </mxCell>
        <mxCell id="KC17zQEP-fs8KMPw8967-481" value="&lt;font&gt;1&lt;/font&gt;" style="text;html=1;whiteSpace=wrap;strokeColor=none;fillColor=none;align=center;verticalAlign=middle;rounded=0;fontSize=11;" parent="1" vertex="1">
          <mxGeometry x="1050" y="150" width="60" height="30" as="geometry" />
        </mxCell>
        <mxCell id="KC17zQEP-fs8KMPw8967-482" value="&lt;font&gt;1..*&lt;/font&gt;" style="text;html=1;whiteSpace=wrap;strokeColor=none;fillColor=none;align=center;verticalAlign=middle;rounded=0;fontSize=11;" parent="1" vertex="1">
          <mxGeometry x="1125" y="180" width="60" height="30" as="geometry" />
        </mxCell>
        <mxCell id="XClMFD-H6gEwDVxdysG8-1" value="&lt;font&gt;1&lt;/font&gt;" style="text;html=1;whiteSpace=wrap;strokeColor=none;fillColor=none;align=center;verticalAlign=middle;rounded=0;fontSize=11;" parent="1" vertex="1">
          <mxGeometry x="1590" y="730" width="60" height="30" as="geometry" />
        </mxCell>
        <mxCell id="uaV4uCl87Z9pghkhVts0-2" value="&lt;font&gt;1&lt;/font&gt;" style="text;html=1;whiteSpace=wrap;strokeColor=none;fillColor=none;align=center;verticalAlign=middle;rounded=0;fontSize=11;" parent="1" vertex="1">
          <mxGeometry x="1100" y="740" width="60" height="30" as="geometry" />
        </mxCell>
        <mxCell id="uaV4uCl87Z9pghkhVts0-3" value="&lt;font&gt;1&lt;/font&gt;" style="text;html=1;whiteSpace=wrap;strokeColor=none;fillColor=none;align=center;verticalAlign=middle;rounded=0;fontSize=11;" parent="1" vertex="1">
          <mxGeometry x="1140" y="740" width="60" height="30" as="geometry" />
        </mxCell>
        <mxCell id="uaV4uCl87Z9pghkhVts0-4" value="." style="text;html=1;whiteSpace=wrap;strokeColor=none;fillColor=none;align=center;verticalAlign=middle;rounded=0;fontSize=11;" parent="1" vertex="1">
          <mxGeometry x="-550" y="-580" width="60" height="30" as="geometry" />
        </mxCell>
        <mxCell id="uaV4uCl87Z9pghkhVts0-5" value="." style="text;html=1;whiteSpace=wrap;strokeColor=none;fillColor=none;align=center;verticalAlign=middle;rounded=0;fontSize=11;" parent="1" vertex="1">
          <mxGeometry x="2370" y="1660" width="60" height="30" as="geometry" />
        </mxCell>
        <mxCell id="stJUK7ONhQcIMSH6tbW7-1" value="" style="shape=waypoint;sketch=0;size=6;pointerEvents=1;points=[];fillColor=none;resizable=0;rotatable=0;perimeter=centerPerimeter;snapToPoint=1;fontSize=11;" parent="1" vertex="1">
          <mxGeometry x="-620" y="-550" width="20" height="20" as="geometry" />
        </mxCell>
        <mxCell id="stJUK7ONhQcIMSH6tbW7-2" value="" style="shape=waypoint;sketch=0;size=6;pointerEvents=1;points=[];fillColor=none;resizable=0;rotatable=0;perimeter=centerPerimeter;snapToPoint=1;fontSize=11;" parent="1" vertex="1">
          <mxGeometry x="2410" y="1790" width="20" height="20" as="geometry" />
        </mxCell>
      </root>
    </mxGraphModel>
  </diagram>
</mxfile>
